<svg xmlns="http://www.w3.org/2000/svg" width="179" height="181" viewBox="0 0 179 181">
  <defs>
    <style>
      .cls-1 {
        fill: #fc4341;
      }

      .cls-1, .cls-2 {
        fill-rule: evenodd;
      }

      .cls-2 {
        fill: #252637;
      }
    </style>
  </defs>
  <path class="cls-1" d="M621.927,4466.91a43.654,43.654,0,0,0-6.784-.08c-0.988.09-2.666,0.21-3.709,0.27s-2.3.18-2.787,0.25a5.82,5.82,0,0,1-1.844-.12,5.657,5.657,0,0,0-1.875-.07,35.622,35.622,0,0,1-6.472-.16c-1.077-.08-2.868-0.2-4.008-0.28-2.152-.14-8.241-0.79-12.533-1.34-5.651-.72-10.161-1.18-13.329-1.36a7.628,7.628,0,0,0-1.779.1,9.529,9.529,0,0,1-2.447-.07,10.631,10.631,0,0,0-3.205.14c-2.124.52-4.795,1.06-6.066,1.24-0.593.08-1.949,0.36-2.977,0.61s-2.4.6-3.013,0.76a23.986,23.986,0,0,1-3.039.43c-1.883.14-2.72,0.08-9.171-.74-3.8-.48-5.713-0.49-7.731-0.03a16.242,16.242,0,0,1-2.236.35c-0.685.01-1.46,0.28-4.43,1.54a13.837,13.837,0,0,0-2.53,1.57c-0.762.59-1.973,1.45-2.663,1.9a53.388,53.388,0,0,0-7.926,7.9,15.087,15.087,0,0,1-1.062,1.5c-0.727.82-4.7,7.47-7.2,12.05-0.682,1.24-2.052,3.62-3.068,5.33a85.14,85.14,0,0,0-4.22,7.79,17.707,17.707,0,0,0-1.573,4.97c-0.845,4.03-1.341,5.8-1.755,6.29-0.683.81-4.052,8.64-5.156,11.99a40.624,40.624,0,0,0-2.215,12.24,67.727,67.727,0,0,0,.073,9.66,15.069,15.069,0,0,1,.13,3c-0.445,1.65.235,7.92,1.173,10.81a62.717,62.717,0,0,0,2.622,7.34,28.112,28.112,0,0,0,4.63,6.42c0.56,0.49,1.433,1.24,1.954,1.69,2.264,1.95,10.015,2.97,12.669,1.66a8.936,8.936,0,0,1,2.52-.66,9.519,9.519,0,0,0,2.652-.69,24.138,24.138,0,0,1,3.48-1.16c1.248-.33,3.144-0.91,4.216-1.29a16.784,16.784,0,0,1,3.142-.81,11.471,11.471,0,0,0,2.784-.82,15.226,15.226,0,0,1,6.334-.9c5,0.56,4.917.53,6.471,2.06a14.5,14.5,0,0,1,2.366,3.27,6.475,6.475,0,0,0,1.176,1.89,5.79,5.79,0,0,1,.866,2.13c0.317,1.13.884,2.85,1.267,3.83s0.969,2.74,1.316,3.94,0.886,2.88,1.214,3.78,1.147,3.28,1.839,5.35a86.557,86.557,0,0,0,3.827,9.57,21.28,21.28,0,0,0,1.336,2.45,13.2,13.2,0,0,1,.97,1.71,22.237,22.237,0,0,0,1.371,2.28,29.025,29.025,0,0,1,1.749,2.99,13.425,13.425,0,0,0,1.576,2.43c0.54,0.65,1.289,1.58,1.671,2.08a24.823,24.823,0,0,0,4.508,4.56c0.694,0.49,1.923,1.47,2.7,2.16,1.346,1.21,1.673,1.33,6.285,2.35a42.9,42.9,0,0,0,6.393,1.03c3.879-.1,11-2.9,16.142-6.35,1.36-.91,2.927-1.97,3.524-2.37s1.645-1.09,2.323-1.54c0.694-.46,2.268-1.63,3.541-2.63,2.5-1.97,3.668-2.85,7-5.3a91.026,91.026,0,0,0,7.611-5.99,56.278,56.278,0,0,0,6.081-6.17c3.186-3.92,5.641-8.9,7.747-15.7a132.543,132.543,0,0,0,2.834-15.34c0.057-.76.221-2.14,0.368-3.09,0.768-4.96,1.99-21.12,1.965-25.97,0-.68.038-2.27,0.094-3.58s0.063-2.73.016-3.17a4.583,4.583,0,0,1,.047-1.3,24.094,24.094,0,0,0,.134-3.15c0-4.71.008-5.06,0.128-6.53a6.377,6.377,0,0,0-.067-1.9,4.37,4.37,0,0,1-.057-1.52c0.28-2.32-.277-26.99-0.681-30.13-0.176-1.38-.346-3.02-0.381-3.71a27.147,27.147,0,0,0-.772-6.43c-0.294-1.18-.569-2.51-0.624-3a8.617,8.617,0,0,0-.728-2.18,31.3,31.3,0,0,1-1.173-2.94,5.768,5.768,0,0,0-1.087-2.05,3.712,3.712,0,0,1-.851-1.03,10.709,10.709,0,0,0-3.208-3,2.613,2.613,0,0,1-.981-0.66c-0.613-.68-5.492-2.22-7.42-2.35h0Z" transform="translate(-483 -4455)"/>
  <path class="cls-2" d="M615.28,4541.45a10.936,10.936,0,0,0,4.353-3.66c1.1-1.8,1.84-4.36,1.632-5.63-0.489-2.99-4.035-4.49-7.3-3.09a10.817,10.817,0,0,0-4.514,3.84c-1.081,1.8-1.614,5-1.083,6.5,0.84,2.36,4.047,3.31,6.914,2.04h0Zm-33.958-18.33a26.517,26.517,0,0,0,7.583-2.74c2.714-1.99,4.127-4.77,3.736-7.35-0.417-2.74-3.25-4.84-6.673-4.94a15.689,15.689,0,0,0-8.493,2.87c-3.759,3.04-4.9,8.02-2.38,10.42a14.061,14.061,0,0,0,5.329,1.87c0.08-.01.494-0.08,0.9-0.13h0Zm76.738-3.7a6.294,6.294,0,0,0,3.646-3.84c1.443-4.31-3.329-6-7.09-2.51-1.216,1.13-2.059,3.61-1.612,4.75,0.806,2.06,2.649,2.64,5.056,1.6h0Zm-29.381-11.35c3.081-.97,6.263-4.19,6.92-7,1.294-5.54-2.716-8.77-8.04-6.46a9.97,9.97,0,0,0-5.713,6.11c-1.034,3.12-.265,5.73,2.074,7.05a6.455,6.455,0,0,0,4.759.3h0Zm-20.846-2.42a11.059,11.059,0,0,0,6.158-6.92,5.035,5.035,0,0,0-.741-5c-0.7-.78-1.067-0.91-2.918-1.04a10.027,10.027,0,0,0-10.248,6.84c-1.685,5.04,2.5,8.34,7.749,6.12h0Zm-40.7-13.94a8.157,8.157,0,0,0,5.432-5.28c0.877-2.64.062-5.25-1.783-5.71-0.386-.09-1.209-0.32-1.808-0.5-2.2-.65-5.5.64-7.39,2.89-2.464,2.92-1.992,5.88,1.249,7.84a4.74,4.74,0,0,0,4.3.76h0Zm77.575-12.02a15.491,15.491,0,0,0,6.116-4.61,11.347,11.347,0,0,0,2.316-7.35c-0.442-3.48-2.766-5.46-6.484-5.5a10.816,10.816,0,0,0-7.363,2.69,12.421,12.421,0,0,0-4.553,6.03c-1.342,3.84-.584,6.83,2.171,8.58a5.267,5.267,0,0,0,3.624.94,8.764,8.764,0,0,0,4.173-.78h0Zm-31.611-8.3c4.16-1.82,7.17-6.55,6.767-10.64a8.321,8.321,0,0,0-3.27-5.05c-2.147-1.29-5.957-.77-9,1.22-3.157,2.08-5.4,6.36-4.876,9.33,0.283,1.61.621,2.16,2.391,3.84a5.567,5.567,0,0,0,4.606,1.98,7.272,7.272,0,0,0,3.382-.68h0Z" transform="translate(-483 -4455)"/>
</svg>
