<svg xmlns="http://www.w3.org/2000/svg" width="207.437" height="210.16" viewBox="0 0 207.437 210.16">
  <defs>
    <style>
      .cls-1 {
        fill: #252637;
      }

      .cls-1, .cls-2 {
        fill-rule: evenodd;
      }

      .cls-2 {
        fill: #fc4341;
      }
    </style>
  </defs>
  <path id="Shape_583_copy" data-name="Shape 583 copy" class="cls-1" d="M986.546,4589.08c-34.826-14.6-67.469-26.02-65.118-40.51,2.387-14.44,39.675-31.97,58.588-55.49,18.819-23.54,19.3-53.02,32.664-63.11,13.43-10.13,39.77-.82,64.63,17.7,24.9,18.57,48.41,46.36,51.16,79.9,2.81,33.51-15.15,72.76-42.56,83.41C1058.4,4621.61,1021.35,4603.77,986.546,4589.08Z" transform="translate(-921.313 -4425.81)"/>
  <path class="cls-2" d="M998.3,4635.42a11,11,0,0,0,4.355-3.66c1.1-1.81,1.84-4.36,1.63-5.63-0.49-3-4.04-4.5-7.3-3.09a10.817,10.817,0,0,0-4.512,3.84c-1.081,1.8-1.613,5-1.082,6.5,0.839,2.36,4.045,3.31,6.912,2.04h0Zm-33.948-18.34a26.5,26.5,0,0,0,7.58-2.73c2.714-1.99,4.127-4.77,3.735-7.35-0.416-2.74-3.249-4.84-6.671-4.94a15.606,15.606,0,0,0-8.491,2.87c-3.757,3.04-4.894,8.02-2.378,10.42a14.046,14.046,0,0,0,5.327,1.87c0.08-.01.494-0.08,0.9-0.14h0Zm76.713-3.7a6.271,6.271,0,0,0,3.65-3.83c1.44-4.32-3.33-6-7.09-2.51-1.22,1.12-2.06,3.61-1.61,4.75,0.8,2.06,2.64,2.64,5.05,1.59h0Zm-29.37-11.35c3.08-.96,6.26-4.18,6.92-6.99,1.29-5.54-2.72-8.77-8.04-6.46a9.963,9.963,0,0,0-5.71,6.11c-1.04,3.12-.27,5.73,2.07,7.05a6.409,6.409,0,0,0,4.76.29h0Zm-20.841-2.41a11.083,11.083,0,0,0,6.157-6.92,5.04,5.04,0,0,0-.741-5c-0.7-.78-1.067-0.91-2.917-1.04a10.024,10.024,0,0,0-10.245,6.84c-1.685,5.04,2.494,8.34,7.746,6.12h0Zm-40.685-13.94a8.157,8.157,0,0,0,5.431-5.28c0.876-2.64.061-5.25-1.783-5.71-0.386-.09-1.208-0.32-1.808-0.5-2.2-.65-5.5.64-7.387,2.88-2.463,2.93-1.992,5.88,1.248,7.84a4.715,4.715,0,0,0,4.3.77h0Zm77.556-12.02a15.521,15.521,0,0,0,6.11-4.61,11.374,11.374,0,0,0,2.32-7.35c-0.45-3.48-2.77-5.46-6.49-5.5a10.768,10.768,0,0,0-7.36,2.69,12.432,12.432,0,0,0-4.55,6.03c-1.34,3.84-.58,6.83,2.17,8.58a5.311,5.311,0,0,0,3.62.94,8.79,8.79,0,0,0,4.18-.78h0Zm-31.606-8.3c4.156-1.82,7.166-6.56,6.766-10.64a8.33,8.33,0,0,0-3.27-5.05c-2.147-1.29-5.955-.78-9,1.22-3.157,2.08-5.4,6.36-4.874,9.33,0.282,1.61.62,2.15,2.389,3.84a5.566,5.566,0,0,0,4.6,1.98,7.268,7.268,0,0,0,3.381-.68h0Z" transform="translate(-921.313 -4425.81)"/>
</svg>
