<svg xmlns="http://www.w3.org/2000/svg" width="851.909" height="300.375" viewBox="0 0 851.909 300.375">
  <defs>
    <style>
      .cls-1 {
        fill: #3a3b4a;
      }

      .cls-1, .cls-2 {
        fill-rule: evenodd;
      }

      .cls-2 {
        fill: #fc4341;
      }
    </style>
  </defs>
  <path class="cls-1" d="M905.842,447.164c3.665-.621,9.492-1.541,12.786-2.015a58.309,58.309,0,0,0,9.285-2.068,19.471,19.471,0,0,1,4.855-1.206c0.9,0,5.11-1.249,9.448-2.791,9.442-3.353,25.795-8.329,32-9.736a81.3,81.3,0,0,0,11.187-3.905A52.719,52.719,0,0,1,996.468,422a121.157,121.157,0,0,0,13.8-3.346c5.19-1.539,10.37-2.794,11.58-2.8a35.443,35.443,0,0,0,7.7-1.937c11.15-3.873,20.49-6.2,25.04-6.227a69.479,69.479,0,0,0,10.87-1.321c3.48-.716,9.55-1.616,13.65-2.021a77.188,77.188,0,0,0,11.63-2.007,38.152,38.152,0,0,1,9.63-1.2c2.96,0.043,12.47-.455,21.08-1.1,17.24-1.3,61.75-1.549,67.63-.382,4.53,0.9,24.8.834,27.57-.09,1.16-.386,5.34-0.357,9.61.064,5.28,0.519,15.04.419,32.27-.327,13.57-.588,33.37-1.22,43.92-1.4,23.39-.4,24.11-0.61,40.26-11.608,2.21-1.5,4.64-2.741,5.44-2.777,2.35-.1,7.49-2.227,10.29-4.248,1.39-1.008,4.15-2.788,6.1-3.937,5.52-3.248,15.12-11.955,17.12-15.525a36.026,36.026,0,0,0,4.09-20.919,51.131,51.131,0,0,0-1.89-9.979,47.941,47.941,0,0,1-1.88-9.223c-1.36-12.481-5.01-19.516-14.43-27.762-4.81-4.207-7.52-7.392-9.64-11.291-2.82-5.185-5.26-7.762-18.82-19.859a111.882,111.882,0,0,0-19.81-14.2,59.719,59.719,0,0,1-8.6-5.448,82.767,82.767,0,0,0-8.86-5.92c-3.09-1.8-7.82-4.8-10.4-6.612-11.66-8.176-27.41-16.4-48.34-25.227-6.86-2.895-7.69-3.271-13.99-6.378-1.99-.982-7.84-2.7-13.06-3.835a96.291,96.291,0,0,1-12.63-3.463c-4.13-1.828-11.65-2.911-23.35-3.366a83.449,83.449,0,0,1-13.85-1.557c-5.95-1.592-28.18-.725-38.58,1.5-3.95.847-11.16,2.289-16.1,3.221s-11.35,2.379-14.31,3.235A90.106,90.106,0,0,1,1086.39,195c-10.91,1.444-36.15-1.612-44.46-5.385a108.314,108.314,0,0,0-13.92-4.265,149.544,149.544,0,0,1-18.81-6.207c-18.184-7.7-42.435-17.142-46.9-18.266a66.841,66.841,0,0,1-9.729-3.566,39.278,39.278,0,0,0-8.484-2.9c-1.809-.258-6.032-1.118-9.371-1.906a94.1,94.1,0,0,0-12.572-1.885c-3.589-.249-8.408-0.81-10.771-1.255-6.373-1.2-19.974.56-27.97,3.619-12.925,4.95-26.993,15.238-34.432,25.181a54.323,54.323,0,0,1-5.192,6.166,42.443,42.443,0,0,0-4.472,5.177c-1.6,2.13-4.364,5.38-6.279,7.384-4.36,4.571-16.731,14.493-18.078,14.5a15.826,15.826,0,0,0-4.418,2.07c-3.553,2.163-5.35,2.731-20.084,6.35-4.683,1.151-9.914,2.442-11.624,2.869s-6.515,1.566-10.689,2.53c-28.961,6.69-48.02,13.816-57.408,21.463-2.454,2-4.74,3.588-5.169,3.591-2.034.013-18.559,21.319-18.531,23.891a6.36,6.36,0,0,1-1.209,2.658,15.517,15.517,0,0,0-1.83,4.554,61.2,61.2,0,0,1-1.83,6.22c-2.859,8-.271,27.933,4.949,38.118,3.79,7.395,6.457,11.67,8.748,14.023a23.925,23.925,0,0,1,2.876,3.84c1.923,3.258,12.065,13.439,19.3,19.38,26.187,21.5,32.814,26.4,46.132,34.121,6.444,3.737,14.117,8.61,17.109,10.866a50.069,50.069,0,0,0,8.595,5.354,80.642,80.642,0,0,1,8.113,4.111c2.738,1.576,9.144,4.772,14.379,7.172s10.661,4.894,12.184,5.6c2.945,1.361,22.034,8.324,27.86,10.161,1.969,0.621,5.225,1.659,7.2,2.294,5.612,1.805,16.348,3.651,25.235,4.336,4.443,0.343,9.427.78,11.152,0.978a48.577,48.577,0,0,0,9.855-.784h0Z" transform="translate(-534.031 -149)"/>
  <path class="cls-2" d="M708.108,233.877c39.786,19.09,76.9,1.509,116.228,4.608,39.2,3.048,80.524,26.816,90.125,59.644,9.642,32.92-12.438,74.9-49.907,91.435-37.377,16.5-90.01,7.6-118.418,13.544-28.45,5.855-32.544,26.6-43.795,37.183-11.384,10.528-29.793,10.937-48.554,6.141-18.629-4.745-37.528-14.513-61.935-30.26-24.5-15.706-54.556-37.258-57.549-60.657s21.028-48.515,33.68-90.791S581.921,163.007,603.8,161.057C625.718,159.2,668.23,214.828,708.108,233.877Z" transform="translate(-534.031 -149)"/>
</svg>
