<svg xmlns="http://www.w3.org/2000/svg" width="410" height="320" viewBox="0 0 410 320">
  <path id="Shape_619_copy" data-name="Shape 619 copy" class="fill-primary" d="M1722.42,297.884c-49.57-5.184-74.82-43.589-114.47-63.677-39.49-20.058-93.32-21.7-122.03,3.816-28.8,25.583-32.48,78.334-6.27,115.958,26.14,37.531,82.02,59.906,105.8,82.18,23.88,22.21,15.51,44.291,20.04,60.914,4.7,16.653,22.16,27.819,43.04,34.254,20.72,6.405,44.69,8.2,77.49,7.556,32.87-.556,74.56-3.4,91.32-23.849s8.57-58.335,21.49-105.849,46.95-104.652,27.08-119.312C1845.94,275.28,1772.06,303.161,1722.42,297.884Z" transform="translate(-1462 -219)"/>
</svg>
