<svg xmlns="http://www.w3.org/2000/svg" width="130" height="290" viewBox="0 0 130 290">
  <defs>
    <style>
      .cls-1 {
        fill: #222;
        fill-rule: evenodd;
      }
    </style>
  </defs>
  <path id="Shape_633_copy" data-name="Shape 633 copy" class="cls-1" d="M249.363,463.5c0.27-1.507.67-3.9,0.876-5.259a22.951,22.951,0,0,1,.9-3.82,7.649,7.649,0,0,0,.524-2,23.474,23.474,0,0,1,1.213-3.886c1.458-3.884,3.621-10.611,4.232-13.164a32.188,32.188,0,0,1,1.7-4.6,20.868,20.868,0,0,0,1.5-4.551,47.394,47.394,0,0,1,1.454-5.675,31.389,31.389,0,0,0,1.218-4.764,13.917,13.917,0,0,1,.842-3.17c1.683-4.584,2.693-8.428,2.707-10.3a27.205,27.205,0,0,1,.574-4.473c0.311-1.429.7-3.926,0.879-5.611a30.131,30.131,0,0,1,.872-4.785,14.937,14.937,0,0,0,.521-3.963c-0.019-1.215.2-5.126,0.48-8.671,0.564-7.088.673-25.4,0.166-27.815-0.392-1.866-.362-10.2.039-11.344a14.4,14.4,0,0,0-.028-3.952,109.17,109.17,0,0,1,.143-13.275c0.255-5.582.53-13.726,0.609-18.065,0.174-9.621.265-9.919,5.045-16.562a7.131,7.131,0,0,0,1.207-2.235,10.338,10.338,0,0,1,1.847-4.232c0.437-.572,1.212-1.709,1.711-2.511,1.412-2.269,5.2-6.218,6.748-7.042a16.43,16.43,0,0,1,9.093-1.684,23.178,23.178,0,0,1,4.338.782,22,22,0,0,0,4.009.771c5.425,0.558,8.483,2.061,12.067,5.935a17.089,17.089,0,0,0,4.908,3.967c2.253,1.158,3.374,2.163,8.632,7.741a46.053,46.053,0,0,1,6.171,8.148,24.448,24.448,0,0,0,2.369,3.536,34.359,34.359,0,0,1,2.573,3.644c0.781,1.273,2.087,3.217,2.874,4.279,3.554,4.8,7.128,11.276,10.965,19.885,1.259,2.823,1.422,3.161,2.773,5.753a31.225,31.225,0,0,1,1.667,5.373,37.852,37.852,0,0,0,1.5,5.2c0.794,1.7,1.265,4.79,1.463,9.6a32.556,32.556,0,0,0,.677,5.7c0.692,2.448.315,11.594-.654,15.869-0.368,1.627-1,4.592-1.4,6.624s-1.034,4.669-1.406,5.887a35.18,35.18,0,0,0-.988,4.45c-0.628,4.49.7,14.87,2.341,18.288a42.631,42.631,0,0,1,1.854,5.726,58.866,58.866,0,0,0,2.7,7.737c3.345,7.48,7.451,17.455,7.939,19.292a26.5,26.5,0,0,0,1.551,4,15.625,15.625,0,0,1,1.259,3.49c0.112,0.744.486,2.481,0.828,3.854a36.638,36.638,0,0,1,.819,5.172c0.109,1.476.352,3.459,0.546,4.431,0.522,2.621-.243,8.216-1.573,11.5a35.057,35.057,0,0,1-10.945,14.163,23.331,23.331,0,0,0-2.681,2.136,18.268,18.268,0,0,1-2.25,1.839c-0.926.659-2.338,1.795-3.21,2.583-1.986,1.793-6.3,6.882-6.3,7.436a6.32,6.32,0,0,1-.9,1.817c-0.941,1.462-1.187,2.2-2.761,8.261-0.5,1.927-1.061,4.078-1.247,4.783s-0.68,2.679-1.1,4.4c-2.908,11.913-6.006,19.752-9.33,23.614a9.973,9.973,0,0,0-1.56,2.126c-0.006.837-9.267,7.634-10.386,7.623a2.84,2.84,0,0,0-1.155.5,6.983,6.983,0,0,1-1.979.753,27.474,27.474,0,0,0-2.7.753c-3.476,1.175-12.142.111-16.568-2.036a27.212,27.212,0,0,1-6.1-3.6,10.366,10.366,0,0,0-1.669-1.183c-1.416-.791-5.842-4.962-8.424-7.939-9.344-10.771-11.475-13.5-14.831-18.975-1.625-2.652-3.743-5.807-4.724-7.038a20.456,20.456,0,0,1-2.327-3.536,32.573,32.573,0,0,0-1.787-3.337c-0.685-1.126-2.074-3.762-3.117-5.914s-2.128-4.386-2.434-5.012c-0.592-1.212-3.618-9.064-4.417-11.46-0.27-.811-0.721-2.15-1-2.96a51.287,51.287,0,0,1-1.885-10.381c-0.149-1.827-.338-3.877-0.425-4.587a18.958,18.958,0,0,1,.341-4.054h0Z" transform="translate(-249 -266)"/>
</svg>
