<svg xmlns="http://www.w3.org/2000/svg" width="550" height="800" viewBox="0 0 550 800">
  <defs>
    <style>
      .cls-1 {
        fill: #fc4341;
      }

      .cls-1, .cls-2 {
        fill-rule: evenodd;
      }

      .cls-2 {
        fill: #252637;
      }
    </style>
  </defs>
  <path class="fill-primary" d="M373.318,331.394c-2.827.551-9.714,1.565-15.388,2.262a97.453,97.453,0,0,0-12.95,2.24,50.75,50.75,0,0,1-5.068,1.52c-14.014,3.178-20.384,5.266-32.95,10.8a98.78,98.78,0,0,0-18.755,10.231c-2.848,1.951-6.668,4.464-8.443,5.554-4.35,2.669-10.883,9.047-21.612,21.1-10.375,11.65-14.983,17.963-21.693,29.72-1.4,2.445-3.085,5.171-3.708,5.981a53.686,53.686,0,0,0-3.635,7.208c-1.358,3.121-3.468,7.9-4.641,10.508a65.347,65.347,0,0,0-3.019,8.132c-0.482,1.849-1.649,5.378-2.614,7.9a29.093,29.093,0,0,0-1.673,5.289C216.8,456,205.873,499.368,209.383,487c-0.805,2.839-2.992,12.871-7.028,23-4.142,10.392-10.16,20.913-13.052,26-3.719,6.545-13.36,18.7-19.29,24.518a65.361,65.361,0,0,1-9.54,8.255c-2.971,2.1-4.368,3.227-7.314,5.227-2.783,1.889-9.861,6.2-12.331,7.781-2.23,1.425-5.532,3.637-7.854,5.171-2.183,1.441-6.283,3.958-7.927,5.048-3.3,2.188-12.057,7.835-17.368,13.052a69.272,69.272,0,0,1-5.78,5.115c-1.261.925-5.307,5.569-9.041,10.376s-5.823,7.112-9.122,11.593c-1.518,2.057-7.16,10.811-8.888,15.864a154.392,154.392,0,0,0-4.837,15.883c-1.122,5.209-3.035,13.86-3.2,21.117-0.01.434-1.308,15.064-.587,24.471,1.731,22.639,3.618,35.228,6.466,43.151a66.852,66.852,0,0,1,1.968,7.886c1.223,6.464,3.523,12.727,10.656,29.013,1.732,3.954,3.426,8.115,3.8,9.324A34.7,34.7,0,0,0,91.27,803.8c0.817,1.527,2.8,5.66,4.405,9.2a52.671,52.671,0,0,0,5.082,9.026,18.669,18.669,0,0,1,2.751,4.335,24.385,24.385,0,0,0,5.114,8.59c2.216,2.23,7.417,10.681,7.593,12.337,0.06,0.576,1.348,2.449,2.884,4.2a72.046,72.046,0,0,1,5.293,7.086,32.933,32.933,0,0,0,5.274,6.221c2.876,2.393,6.059,6.073,9.767,11.292a58.327,58.327,0,0,0,6.391,6.964c2.372,2.211,5.054,4.815,6.033,5.858a67.438,67.438,0,0,0,6.209,5.282,84.5,84.5,0,0,1,6.567,5.52c2.582,2.58,17.656,12.934,23.222,15.951a67.116,67.116,0,0,0,7.893,3.554,39.139,39.139,0,0,1,7.674,4.031c4.452,3.108,7.484,4.676,9.854,5.094a18.818,18.818,0,0,1,4.682,2.047c4.334,2.569,15.59,7.851,18.923,8.882,2.923,0.9,9.379,4.266,15.411,8.027a64.518,64.518,0,0,0,6.023,3.31,67.4,67.4,0,0,1,8.15,5.221c3.049,2.221,5.819,4.219,6.128,4.419,3.305,2.144,21.122,16.621,21.983,17.862a22.019,22.019,0,0,0,3.4,3.49,19.886,19.886,0,0,1,3.534,3.846,36.562,36.562,0,0,0,5.064,5.378c2.1,1.871,4.993,4.75,6.413,6.373s5.217,5.419,8.46,8.469a71.16,71.16,0,0,1,8.3,9.13c2.974,4.44,7.638,9.75,9.869,11.25a20.686,20.686,0,0,1,4.018,4.78,26.812,26.812,0,0,0,4.868,5.65,53.652,53.652,0,0,1,9.911,11.09,28.871,28.871,0,0,0,4.126,4.86,66.94,66.94,0,0,1,7.789,8.55c0.849,1.04,2.728,3.1,4.115,4.49s4.232,4.63,6.255,7.13a77.737,77.737,0,0,0,5.936,6.61,91.824,91.824,0,0,1,8.59,9.14,45.115,45.115,0,0,0,4.778,4.76c1.671,1.42,4.269,3.78,5.741,5.21s4.044,3.94,5.677,5.55c5.083,5.02,17.486,13.2,24.076,15.89,1.577,0.64,3.985,1.78,5.321,2.52,3.007,1.67,16.143,4.64,27.038,6.11,7.607,1.04,13.668.79,31.418-1.25,16.578-1.91,23.512-3.46,31.4-7,2.093-.93,6.428-2.82,9.662-4.21a47.949,47.949,0,0,0,8.258-4.38,24.086,24.086,0,0,1,3.948-2.54,32.875,32.875,0,0,0,4.545-2.85c1.665-1.22,4.009-2.86,5.288-3.71,3.539-2.33,15.148-15.35,16.44-18.44a36.753,36.753,0,0,1,3.1-5.54c2.984-4.29,6.716-11.59,7.05-13.78a33.388,33.388,0,0,1,1.831-5.74,35.355,35.355,0,0,0,2.007-7.68,101.487,101.487,0,0,1,2.252-10.64c2.685-10.15,3.254-19.54,1.989-32.83l-1.066-11.2-3.619-7.859a95.758,95.758,0,0,0-4.557-9.054,21.734,21.734,0,0,1-2.091-3.975c-1.678-4.043-6.874-10.685-13.722-17.536-11.3-11.306-14.906-14.706-17.966-16.928a23,23,0,0,1-5.069-5.422,27.959,27.959,0,0,0-4.974-5.665A53.927,53.927,0,0,1,533.6,918.738a34.442,34.442,0,0,0-4.886-5.707,28,28,0,0,1-4.983-6.594,46.346,46.346,0,0,0-4.187-6.558,24.753,24.753,0,0,1-2.844-4.232,20.59,20.59,0,0,0-2.568-3.83c-2.069-2.481-4.272-5.343-6.974-9.065a27.145,27.145,0,0,1-2.994-6.164,37.255,37.255,0,0,0-3.415-7.108c-1.2-1.847-2.686-4.3-3.326-5.478a31.828,31.828,0,0,0-3.342-4.61,12.568,12.568,0,0,1-2.247-3.154c-0.06-.638-5.82-9.378-9.615-14.588-0.853-1.172-2.234-3.341-3.089-4.855a32.845,32.845,0,0,0-3.356-4.763,182.281,182.281,0,0,1-12.164-16.9c-4.9-7.5-8.379-11.625-15.694-18.616a89.765,89.765,0,0,1-7.14-7.407c-0.677-.968-4.179-3.7-7.84-6.122-20.981-13.859-22.017-14.38-35.346-17.811-3.921-1.01-8.7-2.329-10.672-2.948a74.3,74.3,0,0,0-8.859-1.923,148.9,148.9,0,0,1-16.543-3.285,53.306,53.306,0,0,0-8.452-1.462,36.957,36.957,0,0,1-6.321-.908c-1.943-.462-5.758-1.221-8.44-1.678-9.86-1.682-18.53-5.316-21.678-9.088a22.543,22.543,0,0,0-4.613-4.067,21.955,21.955,0,0,1-5.007-5.107L303,729c-2.871-4.087-6.26-14.155-6.85-20.339-1.282-13.47-1.073-18.282,1.044-24.061a61.79,61.79,0,0,1,3.412-7.8,9.365,9.365,0,0,0,1.367-3.308,3.5,3.5,0,0,1,1.484-2.082c1.438-1.125,1.9-1.172,5.653-.567,12.8,2.063,20.513,3.5,22.3,4.157a33.034,33.034,0,0,0,5.331,1.233,136.864,136.864,0,0,1,17.454,4.531c1.986,0.659,6.483,1.924,10,2.811s7.676,2.026,9.248,2.533c1.593,0.512,4.949,1.4,7.581,2.006a43.052,43.052,0,0,1,6.449,1.913,55.222,55.222,0,0,0,8.019,2.111c3.432,0.7,6.961,1.532,7.762,1.831a42.907,42.907,0,0,0,6.052,1.185c2.541,0.354,6.321,1.028,8.491,1.517,4.492,1.01,16,3.155,22.569,4.2,11.192,1.789,29.279.547,41.164-2.825,8.352-2.37,13.465-4.976,19.256-9.814,2.261-1.891,5.226-4.236,6.5-5.146,4.866-3.469,14.665-19.271,18.259-29.446a58.3,58.3,0,0,1,4.169-8.722,61.505,61.505,0,0,0,4.187-8.6,76.869,76.869,0,0,1,8.044-15.681c1.409-2.12,4.224-6.408,6.225-9.476,6.87-10.538,10.315-15.434,15.812-22.481a94.79,94.79,0,0,0,6.234-8.642,50.794,50.794,0,0,1,4.518-6.225c5.67-6.94,8.022-10.334,9.849-14.209a41.929,41.929,0,0,1,4.453-6.991c3.723-4.62,8.293-11.915,9.664-15.427a40.613,40.613,0,0,1,3.219-6.048c2.722-4.139,10.476-24.035,10.258-26.322a30.358,30.358,0,0,1,1.137-5.632c2.233-8.291,3.053-14.936,2.543-20.577a51.817,51.817,0,0,1-.052-8.9c0.611-4.77-2.072-25.877-3.814-30.018a48.008,48.008,0,0,1-2-5.9c-2.792-11.26-18.48-40.474-25.338-47.184a19.657,19.657,0,0,1-2.37-3.759,25.77,25.77,0,0,0-5.027-6.032c-1.962-1.738-5.108-4.662-6.991-6.5-8.445-8.22-15.508-13.6-22.9-17.433a132.3,132.3,0,0,0-17.812-7.6,49.532,49.532,0,0,1-6.893-2.755,62.85,62.85,0,0,0-7.516-3.054,163.283,163.283,0,0,0-21.667-4.441c-1.713-.15-6.949-0.912-11.575-1.684-11.33-1.893-17.258-2.624-23.5-2.9-2.85-.124-7.46-0.392-10.119-0.585-2.675-.195-7.218-0.279-10.045-0.185a84.762,84.762,0,0,1-9.362-.261,53.461,53.461,0,0,0-9,.069,32.51,32.51,0,0,1-8-.164,50.957,50.957,0,0,0-10.765-.1c-4.192.311-9.252,0.465-11.347,0.346-4.032-.229-8.289.248-16.451,1.842h0Z" transform="translate(-66 -329)"/>
  <path class="fill-dark" d="M78.624,544.3a6.312,6.312,0,1,1-6.311-6.315A6.313,6.313,0,0,1,78.624,544.3Zm32.456,0a6.311,6.311,0,1,1-6.313-6.315A6.314,6.314,0,0,1,111.08,544.3Zm32.456,0a6.313,6.313,0,1,1-6.313-6.315A6.312,6.312,0,0,1,143.536,544.3Zm32.457,0a6.313,6.313,0,1,1-6.314-6.315A6.315,6.315,0,0,1,175.993,544.3ZM78.624,576.769a6.312,6.312,0,1,1-6.311-6.315A6.314,6.314,0,0,1,78.624,576.769Zm32.456,0a6.311,6.311,0,1,1-6.313-6.315A6.314,6.314,0,0,1,111.08,576.769Zm32.456,0a6.313,6.313,0,1,1-6.313-6.315A6.313,6.313,0,0,1,143.536,576.769Zm32.457,0a6.313,6.313,0,1,1-6.314-6.315A6.316,6.316,0,0,1,175.993,576.769ZM78.624,609.234a6.312,6.312,0,1,1-6.311-6.315A6.312,6.312,0,0,1,78.624,609.234Zm32.456,0a6.311,6.311,0,1,1-6.313-6.315A6.313,6.313,0,0,1,111.08,609.234Zm32.456,0a6.313,6.313,0,1,1-6.313-6.315A6.311,6.311,0,0,1,143.536,609.234Zm32.457,0a6.313,6.313,0,1,1-6.314-6.315A6.314,6.314,0,0,1,175.993,609.234ZM78.624,641.7a6.312,6.312,0,1,1-6.311-6.314A6.313,6.313,0,0,1,78.624,641.7Zm32.456,0a6.311,6.311,0,1,1-6.313-6.314A6.314,6.314,0,0,1,111.08,641.7Zm32.456,0a6.313,6.313,0,1,1-6.313-6.314A6.312,6.312,0,0,1,143.536,641.7Zm32.457,0a6.313,6.313,0,1,1-6.314-6.314A6.315,6.315,0,0,1,175.993,641.7Z" transform="translate(-66 -329)"/>
</svg>
