<svg xmlns="http://www.w3.org/2000/svg" width="550" height="800" viewBox="0 0 550 800">
  <path class="fill-primary" d="M1246.32,511.394c-2.83.551-9.72,1.565-15.39,2.262a97.583,97.583,0,0,0-12.95,2.24,51.018,51.018,0,0,1-5.07,1.52c-14.01,3.178-20.38,5.267-32.95,10.8a98.7,98.7,0,0,0-18.75,10.231c-2.85,1.951-6.67,4.464-8.45,5.554-4.35,2.669-10.88,9.047-21.61,21.095-10.37,11.65-14.98,17.963-21.69,29.72-1.4,2.445-3.09,5.171-3.71,5.981a53.47,53.47,0,0,0-3.63,7.208c-1.36,3.121-3.47,7.9-4.64,10.508a63.5,63.5,0,0,0-3.02,8.132c-0.49,1.85-1.65,5.379-2.62,7.9a29.238,29.238,0,0,0-1.67,5.289c-0.37-3.836-11.3,39.532-7.79,27.164-0.8,2.839-2.99,12.872-7.03,23-4.14,10.392-10.16,20.913-13.05,26-3.72,6.545-13.36,18.7-19.29,24.518a65.13,65.13,0,0,1-9.54,8.255c-2.97,2.1-4.37,3.227-7.31,5.227-2.78,1.889-9.86,6.2-12.33,7.781-2.23,1.425-5.53,3.637-7.86,5.171-2.18,1.442-6.279,3.958-7.923,5.048-3.3,2.188-12.057,7.835-17.368,13.052a69.272,69.272,0,0,1-5.78,5.115c-1.261.925-5.307,5.569-9.041,10.376s-5.824,7.112-9.122,11.594c-1.518,2.056-7.16,10.81-8.888,15.863a154.235,154.235,0,0,0-4.837,15.883c-1.122,5.209-3.035,13.86-3.195,21.117-0.01.434-1.308,15.064-.588,24.471,1.731,22.639,3.618,35.228,6.466,43.151a66.847,66.847,0,0,1,1.968,7.887c1.223,6.463,3.523,12.726,10.656,29.012,1.732,3.954,3.426,8.115,3.8,9.324a34.668,34.668,0,0,0,2.155,4.959c0.816,1.527,2.8,5.661,4.4,9.2a52.392,52.392,0,0,0,5.082,9.021,18.744,18.744,0,0,1,2.751,4.34,24.34,24.34,0,0,0,5.114,8.59c2.216,2.23,7.417,10.68,7.593,12.34,0.06,0.57,1.348,2.45,2.884,4.19a71.992,71.992,0,0,1,5.293,7.09,32.93,32.93,0,0,0,5.278,6.22c2.87,2.39,6.06,6.07,9.76,11.29a59.3,59.3,0,0,0,6.39,6.97c2.38,2.21,5.06,4.81,6.04,5.85a67.9,67.9,0,0,0,6.21,5.29,82.122,82.122,0,0,1,6.56,5.52c2.58,2.58,17.66,12.93,23.23,15.95a66.849,66.849,0,0,0,7.89,3.55,39.323,39.323,0,0,1,7.67,4.03c4.45,3.11,7.49,4.68,9.86,5.1a18.612,18.612,0,0,1,4.68,2.04c4.33,2.57,15.59,7.85,18.92,8.88,2.92,0.91,9.38,4.27,15.41,8.03a64.716,64.716,0,0,0,6.02,3.31,67.148,67.148,0,0,1,8.16,5.22c3.04,2.22,5.81,4.22,6.12,4.42,3.31,2.15,21.12,16.62,21.99,17.86a21.424,21.424,0,0,0,3.4,3.49,20.04,20.04,0,0,1,3.53,3.85,36.786,36.786,0,0,0,5.07,5.38c2.09,1.87,4.99,4.75,6.41,6.37,1.43,1.64,5.22,5.42,8.46,8.47a71.076,71.076,0,0,1,8.31,9.13c2.97,4.44,7.63,9.75,9.86,11.25a20.586,20.586,0,0,1,4.02,4.78,26.846,26.846,0,0,0,4.87,5.65,53.394,53.394,0,0,1,9.91,11.09,28.77,28.77,0,0,0,4.13,4.86,67.54,67.54,0,0,1,7.79,8.55c0.85,1.04,2.72,3.1,4.11,4.49s4.23,4.63,6.26,7.13a77.677,77.677,0,0,0,5.93,6.61,90.556,90.556,0,0,1,8.59,9.14,45.636,45.636,0,0,0,4.78,4.76c1.67,1.42,4.27,3.78,5.74,5.21s4.04,3.94,5.68,5.55c5.08,5.02,17.48,13.2,24.07,15.89a58.522,58.522,0,0,1,5.32,2.52c3.01,1.67,16.15,4.64,27.04,6.11,7.61,1.04,13.67.79,31.42-1.25,16.58-1.91,23.51-3.46,31.4-7,2.09-.93,6.43-2.82,9.66-4.21a48.06,48.06,0,0,0,8.26-4.38,23.964,23.964,0,0,1,3.95-2.54,32.706,32.706,0,0,0,4.54-2.85c1.67-1.22,4.01-2.86,5.29-3.71,3.54-2.33,15.15-15.35,16.44-18.44a37.4,37.4,0,0,1,3.1-5.54c2.98-4.29,6.72-11.59,7.05-13.78a33.368,33.368,0,0,1,1.83-5.74,35.476,35.476,0,0,0,2.01-7.68,99.378,99.378,0,0,1,2.25-10.64c2.68-10.15,3.25-19.54,1.99-32.83l-1.07-11.2-3.62-7.86a98.184,98.184,0,0,0-4.55-9.06,21.438,21.438,0,0,1-2.09-3.97c-1.68-4.04-6.88-10.69-13.73-17.54-11.29-11.3-14.9-14.7-17.96-16.93a22.645,22.645,0,0,1-5.07-5.42,28.17,28.17,0,0,0-4.97-5.66,53.788,53.788,0,0,1-10.39-11.41,33.8,33.8,0,0,0-4.89-5.71,28.124,28.124,0,0,1-4.98-6.59,45.121,45.121,0,0,0-4.19-6.56,25.352,25.352,0,0,1-2.84-4.23,20.385,20.385,0,0,0-2.57-3.83c-2.07-2.48-4.27-5.35-6.97-9.07a27.2,27.2,0,0,1-3-6.16,37.163,37.163,0,0,0-3.41-7.11c-1.2-1.85-2.69-4.3-3.33-5.48a31.522,31.522,0,0,0-3.34-4.61,12.621,12.621,0,0,1-2.25-3.15c-0.06-.64-5.82-9.38-9.61-14.59-0.85-1.17-2.23-3.34-3.09-4.86a32.6,32.6,0,0,0-3.36-4.76,181.565,181.565,0,0,1-12.16-16.9c-4.9-7.5-8.38-11.625-15.69-18.616a89.413,89.413,0,0,1-7.14-7.407c-0.68-.968-4.18-3.7-7.84-6.122-20.98-13.859-22.02-14.38-35.35-17.811-3.92-1.01-8.7-2.329-10.67-2.948a74.235,74.235,0,0,0-8.86-1.923,148.617,148.617,0,0,1-16.54-3.285,53.43,53.43,0,0,0-8.46-1.462,37.03,37.03,0,0,1-6.32-.908c-1.94-.462-5.75-1.221-8.44-1.678-9.86-1.681-18.53-5.316-21.67-9.088a22.813,22.813,0,0,0-4.62-4.067,21.98,21.98,0,0,1-5-5.107c-1.38-1.951-3.2-4.556-4.01-5.712-2.87-4.087-6.26-14.155-6.85-20.339-1.29-13.47-1.08-18.282,1.04-24.061a62.576,62.576,0,0,1,3.41-7.8,9.531,9.531,0,0,0,1.37-3.308,3.465,3.465,0,0,1,1.48-2.082c1.44-1.125,1.91-1.172,5.66-.567,12.79,2.063,20.51,3.5,22.3,4.157a32.918,32.918,0,0,0,5.33,1.233,137.254,137.254,0,0,1,17.45,4.531c1.99,0.659,6.48,1.924,10,2.811s7.68,2.026,9.25,2.533c1.59,0.512,4.95,1.4,7.58,2.006a43.474,43.474,0,0,1,6.45,1.914,55.266,55.266,0,0,0,8.02,2.11c3.43,0.7,6.96,1.532,7.76,1.831a42.676,42.676,0,0,0,6.05,1.185c2.54,0.354,6.32,1.028,8.49,1.517,4.49,1.01,16,3.155,22.57,4.2,11.19,1.789,29.28.547,41.16-2.825,8.36-2.37,13.47-4.976,19.26-9.814,2.26-1.89,5.23-4.236,6.5-5.146,4.87-3.469,14.67-19.271,18.26-29.446a59.711,59.711,0,0,1,4.17-8.722,61.025,61.025,0,0,0,4.19-8.6,76.955,76.955,0,0,1,8.04-15.682c1.41-2.12,4.23-6.407,6.23-9.476,6.87-10.537,10.31-15.434,15.81-22.481a94.022,94.022,0,0,0,6.23-8.642,52.384,52.384,0,0,1,4.52-6.225c5.67-6.94,8.02-10.334,9.85-14.209a41.714,41.714,0,0,1,4.45-6.991c3.73-4.62,8.3-11.915,9.67-15.427a40.531,40.531,0,0,1,3.22-6.048c2.72-4.139,10.47-24.035,10.25-26.322a31.568,31.568,0,0,1,1.14-5.632c2.23-8.291,3.05-14.936,2.55-20.577a51.212,51.212,0,0,1-.06-8.9c0.61-4.77-2.07-25.877-3.81-30.018a48.177,48.177,0,0,1-2-5.9c-2.79-11.26-18.48-40.474-25.33-47.184a18.979,18.979,0,0,1-2.37-3.759,26.113,26.113,0,0,0-5.03-6.032c-1.96-1.738-5.11-4.662-6.99-6.5-8.45-8.22-15.51-13.6-22.9-17.433a132.286,132.286,0,0,0-17.81-7.6,49.6,49.6,0,0,1-6.9-2.755,62.566,62.566,0,0,0-7.51-3.054,163.389,163.389,0,0,0-21.67-4.441c-1.71-.15-6.95-0.912-11.57-1.684-11.33-1.893-17.26-2.624-23.5-2.9-2.85-.125-7.46-0.393-10.12-0.586-2.68-.195-7.22-0.279-10.05-0.185a84.717,84.717,0,0,1-9.36-.261,53.58,53.58,0,0,0-9,.069,32.513,32.513,0,0,1-8-.164,50.9,50.9,0,0,0-10.76-.1c-4.2.311-9.26,0.465-11.35,0.346-4.03-.229-8.29.248-16.45,1.842h0Z" transform="translate(-939 -509)"/>
</svg>
