<svg xmlns="http://www.w3.org/2000/svg" width="130" height="100" viewBox="0 0 130 100">
  <path class="fill-dark" d="M194.8,2079.71c1.707,2.59,5.928,3.82,9.146,2.66a6.537,6.537,0,0,0,3.764-3.22,4.5,4.5,0,0,0,.718-3.34,3.974,3.974,0,0,0-1.192-2.99,8.23,8.23,0,0,0-5.457-2.44c-2.628.01-6.349,2.09-7.31,4.08a5.947,5.947,0,0,0,.331,5.25h0Zm22.677,1.11c2.606,4.24,9.785,4.12,12.24-.2,2.717-4.79-1.635-9.36-7.94-8.34a7.962,7.962,0,0,0-4.533,3.34,6.4,6.4,0,0,0,.233,5.2h0Zm5.318-55.42c1.345,3.2,6.124,4.32,9.03,2.12a4.455,4.455,0,0,0,2.168-3.98q0-2.55-2.759-4.17a4.656,4.656,0,0,0-3.251-.59c-2.462.12-3.93,0.88-4.8,2.47a4.436,4.436,0,0,0-.388,4.15h0Zm3.833,31.92c1.166,2.3,3.654,3.65,6.741,3.66,6.666,0,9.763-7.34,4.63-10.98-3.76-2.67-9.054-1.72-11.266,2.01a6.256,6.256,0,0,0-.1,5.31h0Zm11.894,51.18c2.559,3.27,6.671,3.35,9.187.17,1.985-2.52-.154-6.22-3.865-6.7-3.087-.4-5.983,1.33-6.3,3.76-0.144,1.1.006,1.52,0.977,2.77h0Zm20.6-63.81a7.951,7.951,0,0,0,3.731,3.6c2.693,0.97,6.965.06,8.707-1.85a5.384,5.384,0,0,0-1.581-8.3,10.992,10.992,0,0,0-6.666-1.02,6.2,6.2,0,0,0-4.832,5.64,5.5,5.5,0,0,0,.641,1.93h0Zm3.947,29.85a10.835,10.835,0,0,0,3.4,4.87,22.249,22.249,0,0,0,3.185,1.72,9.315,9.315,0,0,0,5.041.93,10.266,10.266,0,0,0,4.548-.67,10.721,10.721,0,0,0,5.408-4.53,6.3,6.3,0,0,0,1.061-4.02c0-4.21-2.068-7.06-6.469-8.91-2.513-1.06-2.841-1.12-5.927-1.12-2.693,0-3.51.11-4.647,0.63-4.557,2.1-6.971,6.89-5.6,11.1h0Zm6.449-55.27a7.7,7.7,0,0,0,3.811,4.18c3.087,1.49,7.39.76,9.489-1.61a6.159,6.159,0,0,0-.754-9.11,7.629,7.629,0,0,0-7.98-1.01,6.99,6.99,0,0,0-4.413,4.16,4.173,4.173,0,0,0-.153,3.39h0Zm4.28,77.13a10.125,10.125,0,0,0,6.23,5.92c5.433,2.15,11.884.12,14.564-4.57a6.488,6.488,0,0,0,.952-4.22,6.8,6.8,0,0,0-.862-4.03,11.391,11.391,0,0,0-10.155-5.49c-6.043,0-10.722,3.81-11.059,8.99a8.859,8.859,0,0,0,.33,3.4h0Zm14.812-50.64a9.137,9.137,0,0,0,10.136,5.03c4.236-.86,6.921-3.67,6.961-7.26a6.468,6.468,0,0,0-2.3-5.23,8.458,8.458,0,0,0-6.473-2.45c-5.91.02-10.274,5.21-8.329,9.91h0Zm18.8-25.67a8.086,8.086,0,0,0,6.634,3.67c3.153,0,6.489-2.32,7.148-4.97a5.486,5.486,0,0,0-2.123-5.9,7.88,7.88,0,0,0-9.786-.32,5.986,5.986,0,0,0-1.873,7.52h0Zm3.731,38.9c0.247,1.09,2.444,3,4.053,3.53,4.339,1.42,8.8-1.27,8.8-5.31,0-3.24-2.758-5.54-6.633-5.54-4.352,0-7.137,3.28-6.22,7.32h0Z" transform="translate(-194 -2011)"/>
</svg>
