<svg xmlns="http://www.w3.org/2000/svg" width="125" height="150.031" viewBox="0 0 125 150.031">
  <defs>
    <style>
      .cls-1 {
        fill: #f4f4f5;
        fill-rule: evenodd;
      }
    </style>
  </defs>
  <path class="cls-1" d="M1013.76,367.921c3.43,7.215-4.43,24.064,1.54,38.871,6.02,14.79,15.89,26.916,16.64,35.181,0.79,8.266-7.58,12.7-22.46,23.178-14.928,10.459-26.315,27.562-46.87,39.274-20.649,11.812-44.238-1.471-52.685-14.886-8.407-13.486,3.5-26.761,7.208-50.35,3.66-23.623-7.238-38.051-4.7-50.922,2.487-12.868,13.34-24.417,26.126-27.959,12.7-3.486,27.363.949,42.143,1.914C995.434,363.233,1010.28,360.747,1013.76,367.921Z" transform="translate(-907 -358.969)"/>
</svg>
