<svg xmlns="http://www.w3.org/2000/svg" width="369.987" height="349.879" viewBox="0 0 368 348">
  <defs>
    <style>
      .cls-1 {
        fill: #242536;
      }

      .cls-1, .cls-2 {
        fill-rule: evenodd;
      }

      .cls-2 {
        fill: #fc4341;
      }
    </style>
  </defs>
  <path class="fill-primary" d="M1703.37,655.157c3.79,18.575-23.47,53.283-18.1,90.86,5.49,37.611,21.26,71.258,18.36,90.852-2.79,19.628-24.36,25.171-64.03,41-39.64,15.713-74.85,48.724-127.61,63.981-52.79,15.369-98.08-28.535-109.48-64.033-11.26-35.576,22.49-59.346,43.72-111.35,21.16-52.15,4.81-91.126,17.54-119.24,12.62-28.148,43.22-48.834,73.81-50.146,30.45-1.233,61.03,16.83,93.89,27.006C1664.29,634.371,1699.43,636.659,1703.37,655.157Z" transform="translate(-1336 -597)"/>
  <path class="fill-dark" d="M1348.61,732.237a6.305,6.305,0,1,1-6.3-6.315A6.306,6.306,0,0,1,1348.61,732.237Zm32.42,0a6.305,6.305,0,1,1-6.3-6.315A6.306,6.306,0,0,1,1381.03,732.237Zm32.43,0a6.31,6.31,0,1,1-6.31-6.315A6.308,6.308,0,0,1,1413.46,732.237Zm32.42,0a6.305,6.305,0,1,1-6.31-6.315A6.308,6.308,0,0,1,1445.88,732.237Zm-97.27,32.455a6.305,6.305,0,1,1-6.3-6.313A6.307,6.307,0,0,1,1348.61,764.692Zm32.42,0a6.305,6.305,0,1,1-6.3-6.313A6.307,6.307,0,0,1,1381.03,764.692Zm32.43,0a6.31,6.31,0,1,1-6.31-6.313A6.309,6.309,0,0,1,1413.46,764.692Zm32.42,0a6.305,6.305,0,1,1-6.31-6.313A6.309,6.309,0,0,1,1445.88,764.692Zm-97.27,32.457a6.305,6.305,0,1,1-6.3-6.313A6.306,6.306,0,0,1,1348.61,797.149Zm32.42,0a6.305,6.305,0,1,1-6.3-6.313A6.306,6.306,0,0,1,1381.03,797.149Zm32.43,0a6.31,6.31,0,1,1-6.31-6.313A6.308,6.308,0,0,1,1413.46,797.149Zm32.42,0a6.305,6.305,0,1,1-6.31-6.313A6.308,6.308,0,0,1,1445.88,797.149Zm-97.27,32.456a6.305,6.305,0,1,1-6.3-6.312A6.306,6.306,0,0,1,1348.61,829.605Zm32.42,0a6.305,6.305,0,1,1-6.3-6.312A6.306,6.306,0,0,1,1381.03,829.605Zm32.43,0a6.31,6.31,0,1,1-6.31-6.312A6.308,6.308,0,0,1,1413.46,829.605Zm32.42,0a6.305,6.305,0,1,1-6.31-6.312A6.308,6.308,0,0,1,1445.88,829.605Z" transform="translate(-1336 -597)"/>
</svg>
