<svg xmlns="http://www.w3.org/2000/svg" width="240.012" height="15.934" viewBox="0 0 241 16">
  <path class="fill-primary" d="M590.586,1104.53c0.266,0.3,1.334.04,1.381,0.48H592.5c-0.606.34-1.577-.06-2.231,0.05A2.188,2.188,0,0,1,590.586,1104.53Zm5.215,0.91a0.388,0.388,0,0,0,.34-0.09c0.244-.02-0.072.22,0.316,0.14a4.025,4.025,0,0,1-1.819-.1C594.685,1105.2,595.9,1105.18,595.8,1105.44Zm-7.327.19c0.291-.25,1.334.1,1.384-0.24,0.363,0.05,0,.12.1,0.29a4.474,4.474,0,0,0,.85-0.29,14.594,14.594,0,0,0,1.915.24c-0.169.6,1.771,0.07,1.821,0.63a1.2,1.2,0,0,1-.85-0.19,9.424,9.424,0,0,1-3.105-.34A8.526,8.526,0,0,1,588.474,1105.63Zm16.28,3.42c-0.171.14-.824,0.08-0.534,0.29-0.266-.06-0.728-0.16-0.315-0.24a4,4,0,0,1-2.037,0c-0.05-.04.534-0.19-0.1-0.14C602.377,1108.46,604.245,1108.9,604.754,1109.05Zm2.644-.14a0.332,0.332,0,0,1,.34.19c-0.34.03-.315-0.08-0.656-0.05A0.821,0.821,0,0,0,607.4,1108.91Zm-1.478.05a5.058,5.058,0,0,1,1.065.04A1.067,1.067,0,0,1,605.92,1108.96Zm6.7,0.09c0.072,0.19-.581.05-0.85,0.1C611.718,1108.96,612.347,1109.09,612.615,1109.05Zm-8.176.29h0.534C605,1109.5,604.342,1109.54,604.439,1109.34Zm1.262,0.63c-0.268.13-1.384,0.16-1.384-.1A4.736,4.736,0,0,1,605.7,1109.97Zm1.284,0.14a3.068,3.068,0,0,1-1.162-.1C605.992,1109.86,607.06,1109.86,606.985,1110.11Zm0.85-.14h0.534a0.763,0.763,0,0,1-.631.14A0.194,0.194,0,0,0,607.835,1109.97Zm1.481,0.81c0.144,0.27-.487.2-0.728,0.29C608.054,1110.84,608.685,1110.68,609.316,1110.78Zm1.915,0c-0.194.15-.122,0.13-0.315,0.29a5.419,5.419,0,0,1-.751-0.05v-0.19A8.623,8.623,0,0,1,611.231,1110.78Zm-1.478.05c0.509,0,0,.32-0.219.14C609.606,1110.92,609.775,1110.92,609.753,1110.83Zm2.45,0c0.437-.04.534,0.07,0.946,0.04,0.072,0.32-.922.16-1.481,0.2C611.45,1110.97,612.662,1111.07,612.2,1110.83Zm1.8,0a0.62,0.62,0,0,1-.631.24A0.99,0.99,0,0,1,614,1110.83Zm-22.347.04c0.2,0.03.412,0.31-.1,0.25A1.8,1.8,0,0,1,591.652,1110.87Zm15.964,0.1v0.15c-0.29.02-.437-0.05-1.068,0A3.328,3.328,0,0,1,607.616,1110.97Zm-0.315.34c-0.728.29-2.281-.11-2.862,0.1-0.194-.28.85-0.31,0.85-0.1A19.29,19.29,0,0,1,607.3,1111.31Zm-19.992.1a1.132,1.132,0,0,1,.728,0A0.807,0.807,0,0,1,587.309,1111.41Zm15.309,0.67c-1.066-.04-1.6-0.07-2.45-0.15-0.122-.06-0.025-0.07,0-0.14A5.639,5.639,0,0,1,602.618,1112.08Zm-4.147.04c0.607,0.07,1.285.07,1.163,0.34a9.534,9.534,0,0,0-1.163-.09C598.544,1112.22,598.544,1112.27,598.471,1112.12ZM556.764,1114a1.432,1.432,0,0,1-.847.1C555.842,1113.91,556.5,1114.04,556.764,1114Zm2.67-11.34c0.266,0.08.241,0.37,0.631,0.52,0.144-.01,1.116-0.02.945-0.33a11.756,11.756,0,0,0,2.233-.15c0.1,0.16-.34.07-0.412,0.15,0.534,0.25,2.352-.19,2.134.48a8.546,8.546,0,0,0,.946.24c-0.218-.23.025-0.37,0.534-0.48,0.485-.02-0.365.32,0.219,0.38,0.144-.03-0.1-0.14.194-0.19a1.712,1.712,0,0,1,.872.1c1.5-.24,3.955.59,5.314,0.14,0.29,0.05.584,0.32,0.218,0.38a17.533,17.533,0,0,0,2.765-.09,0.626,0.626,0,0,1,.219.24,0.97,0.97,0,0,0,.413-0.29,1.142,1.142,0,0,1,.849.29,4.18,4.18,0,0,0,1.7-.34c0.24,0.1-.05.14,0,0.29a3.5,3.5,0,0,0,.531-0.05c0.2,0.09.025,0.12,0,.24a2.959,2.959,0,0,1,.656-0.09c1.359,0.47,3.543-.37,4.124.57a17.855,17.855,0,0,1-2.546.15,16.03,16.03,0,0,1,1.6.39,2.268,2.268,0,0,1,.946-0.29,5.326,5.326,0,0,1,.34.47,4.656,4.656,0,0,1,1.384-.33c0.606,0.33,2.087.27,2.231,0.81,0.875-.03,1.359.13,2.112,0.15a0.9,0.9,0,0,1-.509.15c0.1,0.32-.269.42-0.438,0.62a4.78,4.78,0,0,0,.85-0.24c-0.171-.15-0.074-0.32.1-0.43,0.775,0.12,1.381-.04,2.256.05,0.9,0.08,1.528.43,2.328,0.04a0.75,0.75,0,0,1,.534.24,41.581,41.581,0,0,1,5.217.29,0.74,0.74,0,0,1,.412.24,1.36,1.36,0,0,1,1.069.14,2.069,2.069,0,0,1,.434-0.14c0.122,0.18.922,0.07,1.069,0.24-0.147.07-.485,0.05-0.316,0.24-0.8-.16-2.28-0.11-2.256-0.38-1.068.55-2.352,0.23-3.808,0.24a32.135,32.135,0,0,0,3.808.48c-0.365.19,0.7,0.55,0.753,0.38a1.331,1.331,0,0,1-.315.58c-0.293.1-1.069,0.05-.753,0.29a5.282,5.282,0,0,0-.947-0.05c0.025,0.06-.025.09-0.121,0.1,0.631,0.4,2.33.33,2.983,0.72,0.341-.03.778-0.2,0.85,0.05-1.044.13-2.281-.26-3.081-0.15a3.4,3.4,0,0,0,.85.39,33.212,33.212,0,0,1,4.149.33c0.047,0.16-.365.13-0.1,0.24,0.484,0.05.266-.22,0.75-0.19,0.025,0.09.025,0.21,0.316,0.19,0.268-.08.34,0.07,0.194-0.14h0.656c0,0.14.315,0.24,0.1,0.33a19.684,19.684,0,0,0-2.643.1,0.378,0.378,0,0,0,.316-0.33,4.272,4.272,0,0,0-1.069.09c-0.29-.06-0.315-0.24-0.631-0.29-0.072.13-.146,0.17,0.1,0.24a19.027,19.027,0,0,0-2.231-.14c0.291,0.35,1.381.33,1.478,0.77a0.892,0.892,0,0,0,.438-0.19,3.577,3.577,0,0,1,.849.19c-0.1.32-1.018,0.05-.849,0.29a12.012,12.012,0,0,0-2.984-.05c-0.291-.12.194-0.07,0.219-0.19-1.141.21-2.256-.17-3.081,0a10.233,10.233,0,0,0,1.7.24c0.025,0.12-.413.04-0.316,0.19a1.7,1.7,0,0,0-1.066-.05,1.337,1.337,0,0,0-1.19-.09,1.5,1.5,0,0,1-.412-0.24,4,4,0,0,1-2.547-.19,3.807,3.807,0,0,1-1.6.04c0.194-.09.631-0.24,0.534-0.43-0.678-.19-1.359.18-1.7-0.1-0.266.15,0.147,0.3,0.534,0.29-1.284.64-3.443-.04-5.118,0.1a3.145,3.145,0,0,1-1.165.14c0.7,0.36,2.184.12,2.643,0.39,0.316,0.01.122-.18,0.341-0.19,1.649-.01,2.427.11,3.93,0.14,0.194,0.1-.072.09,0.1,0.19a1.577,1.577,0,0,1,.656-0.19c0.169,0.21.849,0.02,1.043,0.29a15.708,15.708,0,0,1,3.421.09,3.447,3.447,0,0,0,.219.39c-0.681-.06-1.287-0.14-2.04-0.15a0.444,0.444,0,0,0-.194.29c0.219,0.09.825,0.01,0.631,0.29a4.724,4.724,0,0,1,.947.15,17.551,17.551,0,0,1-3.615-.2c0.194-.1.825-0.01,1.068-0.09v-0.24a5.518,5.518,0,0,0-.946.14c-0.025-.08.122-0.1,0.1-0.19a2.882,2.882,0,0,0-1.506.05c-0.484.01-.315-0.27-0.847-0.25-0.219.04-.025,0.27-0.1,0.39,0.68,0.27,1.311-.3,2.015.05,0.049,0.12-.413.04-0.316,0.19-1.868-.07-3.93-0.22-5.63-0.14a1.909,1.909,0,0,0-1.065.19c1.99-.03,4.973.02,7.011,0.14,0,0.1.29,0.06,0.218,0.2a7.5,7.5,0,0,1,2.984,0c0.656,0.07,1.868-.12,2.015.23a24.57,24.57,0,0,1-3.3-.04,1.566,1.566,0,0,1,.338-0.15c-0.218-.01-0.338.01-0.338,0.1-1.262-.16-2.767.03-4.029,0-0.047-.09-0.485,0-0.338-0.19a2.051,2.051,0,0,1-1.043.05c-0.122.2-.728,0.28-0.438,0.53a19.717,19.717,0,0,0-2.328.33c-0.171.2,0.532,0.01,0.532,0.15,0.05,0.23-.581.07-0.872,0.04a31.805,31.805,0,0,1-4.149.34c-0.218.02-.025,0.24-0.1,0.34-1.068-.14-2.743.14-3.93-0.15a5,5,0,0,1-2.887.05,12.289,12.289,0,0,1-4.149,0,7.461,7.461,0,0,1-4.367-.48,1.059,1.059,0,0,1,.872,0,1.335,1.335,0,0,0,.534-0.19,6.572,6.572,0,0,0-2.134.09c-0.122.16-.025,0.11,0,0.29-1.19-.15-3.371.19-4.052-0.48a4.515,4.515,0,0,0-1.6.1c-0.584-.33-1.918-0.08-3.083-0.19-0.12-.12.025-0.14-0.219-0.24a2.818,2.818,0,0,0-1.575.28c-3.2-.22-6.7-0.36-9.9-0.53a18.824,18.824,0,0,1-2.45-.14c-1.674-.03-3.371.29-4.464-0.29a3.859,3.859,0,0,1-1.069.29,17.2,17.2,0,0,0-2.983-.14,0.223,0.223,0,0,0-.1-0.29c-0.9.04-1.794,0.59-2.668,0.19-0.366-.03-0.266.17-0.631,0.14-1.091-.51-3.349.34-4.052-0.38a4.825,4.825,0,0,1-2.328-.1,0.8,0.8,0,0,1-.85-0.09c-0.365-.01-0.268.17-0.437,0.24-1.5-.11-3.493.17-4.586-0.24a9.739,9.739,0,0,0-1.163.19c-0.171-.08-0.437-0.13-0.412-0.29a1.39,1.39,0,0,1-1.287-.19c-0.244.01-.51,0.03-0.413,0.19a1.655,1.655,0,0,1-.34-0.14c-0.266.03-.144,0.25-0.316,0.33-1.334-.06-4.074-0.42-5.214-0.14-1.821-.18-4.221.09-5.752-0.24a11.6,11.6,0,0,0-1.162.29c-1.821-.21-2.84-0.11-4.465-0.34a5.411,5.411,0,0,1-2.671.14,0.889,0.889,0,0,1-.313.25c-1.627-.12-3.811.02-4.779-0.39a1.335,1.335,0,0,0-.535.19,24.1,24.1,0,0,0-3.2.05c-1.359-.39-3.786.39-5.63-0.24a5.387,5.387,0,0,1-2.668.05,2,2,0,0,1-1.384.09c-0.7-.01-1.552.11-2.546,0.1-0.1,0-.34-0.1-0.413-0.1a5.829,5.829,0,0,1-2.255-.09c-1.893.24-3.762-.18-5.63,0.05-1.018-.25-1.818-0.06-2.765-0.25a1.463,1.463,0,0,0-.753.2c-0.825-.21-2.6.1-3.177-0.2-0.681.36-1.7,0-2.452-.05-0.969-.04-2.45.33-3.3-0.04-2.087.26-4.827-.29-6.914,0.09-1.915-.53-4.489.21-6.6-0.14-3.374.27-6.72,0.15-10.529,0.14a1.828,1.828,0,0,0-.534.15,17.048,17.048,0,0,0-3.083.14c-2.353-.27-4.559.14-6.72,0-0.145-.03,0-0.18-0.194-0.19a1.985,1.985,0,0,1-1.7.05,6.208,6.208,0,0,1-2.137.14c-0.459.3-1.5,0.06-2.352,0.25a8.126,8.126,0,0,0-3.4.24,7.507,7.507,0,0,0-2.352.14,3.834,3.834,0,0,0-1.578.1,24.955,24.955,0,0,0-2.887,0c-0.534,0-1.214-.03-1.577,0-1.141.06-2.134,0.35-3.421,0.33-1.844-.02-3.4.42-5.217,0.2a6.313,6.313,0,0,1-3.081.04,44.83,44.83,0,0,1-7.545.44c-0.388.02-.266-0.18-0.656-0.15a15.352,15.352,0,0,1-4.027-.14c0.218-.39-0.557-0.33-0.85-0.49-0.047-.29.462-0.81-0.434-0.81,0.072-.52-1.359-0.72-1.918-1.11,0.218-.24.024-0.33-0.316-0.43,0.244-1.23-1.5-2.2-.75-3.65-0.487-.51.8-1.28-0.316-1.59,0.728-.27.216-0.82,0.119-1.25a5.834,5.834,0,0,1,1.384-.53,4.1,4.1,0,0,1,1.384-1.39c2.837-.43,3.128-2.02,5.846-2.51,1.553-.06,2.4.61,3.833,0.29a24.2,24.2,0,0,0,5.411.39c0.8-.03,1.5-0.15,2.45-0.15,1.018,0,2.062-.19,3.421-0.24,2.28-.07,4.73-0.22,7.011-0.33,1-.05,1.99.03,2.67,0a18.348,18.348,0,0,1,4.246-.1c0.291-.06.557-0.13,0.847-0.19a2.174,2.174,0,0,1,.753.09,1.735,1.735,0,0,0,.631-0.19c4.537-.02,9.51-0.25,13.612-0.48,2.134,0.11,3.953-.11,6.064-0.14,0.607,0.18,1.31-.11,1.918.09a8.534,8.534,0,0,1,2.037-.19,4.667,4.667,0,0,1,.728.19c1.238,0.16,3.131-.17,4.584-0.14a0.723,0.723,0,0,1,.316.09,5.914,5.914,0,0,0,.849-0.14c1.238,0,2.209.22,3.421,0.24,1.7,0.02,3.543-.43,5,0.09,0.728-.35,1.674-0.03,2.862-0.19a4.162,4.162,0,0,1,.631.29,5.947,5.947,0,0,1,3.421.05,3.3,3.3,0,0,0,.728-0.2c1.577,0.14,3.883-.18,5.555.15,0.293,0.01.315-.11,0.631-0.1a9.15,9.15,0,0,1,2.452.54c1.5-.23,5-0.6,6.161.04a2.78,2.78,0,0,0,.753-0.19,32.657,32.657,0,0,1,4.683.34,6.028,6.028,0,0,1,2.012-.24c-0.024.08,0.122,0.1,0.1,0.19-0.025.13-.387,0.11-0.412,0.24a1.015,1.015,0,0,0,.534.19,5,5,0,0,0,1.8-.57,33.84,33.84,0,0,1,5.337.09,32.031,32.031,0,0,1,4.561.05c-0.047.27-.219,0.54,0.534,0.53,0.363-.13.219-0.18,0.219-0.43a24.343,24.343,0,0,1,3.615-.1,0.932,0.932,0,0,0,.631.29,4.525,4.525,0,0,0,1.5-.39c2.5,0.09,4-.05,6.26.05,0.122,0.05.219,0.1,0.341,0.15,1.746-.41,3.952.07,5.724-0.2a4.562,4.562,0,0,1,1.068.2,10.29,10.29,0,0,1,3.3.09c2.087-.25,4.512.21,6.6,0.05a4.511,4.511,0,0,0,2.233.19c0.144,0.02.219,0.06,0.219,0.14a2.622,2.622,0,0,1,2.012.2,13.308,13.308,0,0,0,1.821-.2c0.047,0.14.047,0.14,0.413,0.2a5.493,5.493,0,0,1,2.79.14,5.291,5.291,0,0,1,2.327.15,8.651,8.651,0,0,1,3.615.38c2.912-.34,6.576.57,9.585,0.39,0.119,0.11-.075.1,0.218,0.19a10.622,10.622,0,0,1,2.644.14c0.437,0,.825-0.15,1.287-0.14,0.387,0.01.825,0.2,1.259,0.24a6.01,6.01,0,0,1,1.6.05,1.7,1.7,0,0,1,.534-0.2c0.484,0,.219.32,0.75,0.3,0.341,0.03.147-.16,0.316-0.2C557.807,1102.36,558.778,1102.89,559.434,1102.66Zm17.856,2.4a0.291,0.291,0,0,1,.218.1,6.044,6.044,0,0,1,1.918.09c-0.025-.27-0.705-0.33-0.946-0.62A1.289,1.289,0,0,0,577.29,1105.06Zm7.763,0.43c-0.025.15,0.366,0.1,0.534,0.14a2.087,2.087,0,0,1,.438-0.28A5.737,5.737,0,0,1,585.053,1105.49Zm-17.323.82c0.462,0.04.631-.06,1.043-0.05-0.119-.26-0.728-0.04-1.043-0.24C567.633,1106.16,567.633,1106.17,567.73,1106.31Zm25.209,0.57a1.882,1.882,0,0,0,.752-0.23C593.2,1106.6,592.745,1106.8,592.939,1106.88Zm-14.459.97c0.387-.02.872,0.25,0.946-0.05A1.966,1.966,0,0,0,578.48,1107.85Zm6.914,0.43a1.179,1.179,0,0,0,.412-0.05c-0.146-.55-1.14-0.23-1.7-0.48,0.025,0.09-.122.11-0.1,0.19a4,4,0,0,1,.849.1c0,0.11-.1.15-0.34,0.14a4.609,4.609,0,0,0-2.328.05,16.388,16.388,0,0,0,2.765.19,1.1,1.1,0,0,1,.316-0.19c-0.266,0-.266-0.18,0-0.19A1.432,1.432,0,0,1,585.394,1108.28Zm5.627-.05c-0.194-.24.39-0.15,0.437-0.29a3.175,3.175,0,0,0-.969-0.19C589.98,1107.93,590.439,1108.4,591.021,1108.23Zm-4.05-.19a3.48,3.48,0,0,1,.751.09v-0.24A1.141,1.141,0,0,0,586.971,1108.04Zm-0.849.34a2.509,2.509,0,0,0,1.284.14v-0.24A1.239,1.239,0,0,0,586.122,1108.38Zm8.1,0.29a8.448,8.448,0,0,0-.972-0.2C593.085,1108.73,594.1,1108.69,594.226,1108.67Zm-1.384,0c0.025-.13-0.147-0.16-0.437-0.15C592.38,1108.65,592.551,1108.68,592.842,1108.67Zm-4.683.91c0.025,0.18-.437.12-0.341,0.34a4.69,4.69,0,0,0,.753,0c-0.144-.25.341-0.21,0.316-0.39-0.534-.2-0.169-0.51-0.631-0.72-0.025.3-.607-0.12-0.753,0.19,0.365,0.01.609,0.36,0.219,0.48-0.194-.11-0.751-0.07-0.751-0.38,0.316-.04.46-0.16,0.435-0.34-0.872-.1-1.843.32-2.547,0.1,0-.1.291-0.06,0.194-0.19a1.025,1.025,0,0,0-.849.14c0.1,0.2.946,0.06,0.752,0.38,0.413-.01.388,0.18,0.85,0.15a0.236,0.236,0,0,1,.219-0.05c0.338-.09-0.365-0.16,0-0.24A6.527,6.527,0,0,0,588.159,1109.58Zm0.728-.2a2.5,2.5,0,0,1,1.505.34,1.176,1.176,0,0,1,.629-0.05c-0.388.27-.51,0.5-0.216,0.77,0.775-.24.459-0.82,0.216-1.25a2.736,2.736,0,0,1-1.285.05,0.29,0.29,0,0,0,.122-0.33A0.83,0.83,0,0,0,588.887,1109.38Zm4.586-.04v0.19a3.663,3.663,0,0,1,1.6.34c-0.388-.29.68-0.2,0.946-0.34-0.218-.01-0.025-0.21-0.315-0.19a2.921,2.921,0,0,1-1.819-.1A0.4,0.4,0,0,1,593.473,1109.34Zm-13.515.19a17.094,17.094,0,0,0,3.18.29c0.194-.11.606-0.12,0.534-0.34a5.035,5.035,0,0,0-2.015.1c-0.025-.06.025-0.14-0.1-0.15A8.657,8.657,0,0,1,579.958,1109.53Zm19.579,0.34a1.377,1.377,0,0,0,.753-0.2,1.993,1.993,0,0,0-.971-0.09A0.355,0.355,0,0,1,599.537,1109.87Zm-5.53-.1c-0.122.15,0.241,0.09,0.412,0.1v-0.15A1.468,1.468,0,0,0,594.007,1109.77Zm1.381,1.01c0.462-.03-0.387-0.18-0.1-0.43,0.147-.01.172-0.08,0.316-0.1,0.631,0.1,1.7-.01,1.918.29,1.6-.3,2.353.48,3.615,0.14-0.778-.33-2.234-0.1-2.887-0.52-0.922.22-2.693-.25-3.931-0.15C594.226,1110.47,595.122,1110.48,595.388,1110.78Zm-6.161-.14a0.467,0.467,0,0,0,.316.23,4.9,4.9,0,0,0,.412-0.38A2.2,2.2,0,0,0,589.227,1110.64Zm-1.409.28a0.86,0.86,0,0,1,.753-0.14c0.025-.12-0.025-0.21-0.315-0.19C588.184,1110.72,587.19,1110.77,587.818,1110.92Zm6.067,0a0.652,0.652,0,0,0,.219.25c0.315,0.03.29-.07,0.534-0.05C594.735,1110.9,594.2,1110.81,593.885,1110.92Zm7.255,0.2a2.825,2.825,0,0,0,.631-0.25h-0.534C601.284,1110.99,601.043,1110.98,601.14,1111.12Zm-26.809.14c0.338,0.27,1.212.02,1.7,0.1A1.728,1.728,0,0,0,574.331,1111.26Zm2.959,0.1c0.218,0.12.412,0.23,0.655,0.34-0.315.11-.777,0.16-1.068,0.28,0.437,0.01.584,0.15,1.068,0.14,0.969-.21,0-0.57.194-0.9A1.4,1.4,0,0,0,577.29,1111.36Zm3.736,0a2.344,2.344,0,0,1,.631.34v-0.29a1.747,1.747,0,0,0,.753-0.15,2.6,2.6,0,0,1-1.165-.04C581.27,1111.31,581.1,1111.31,581.026,1111.36Zm1.8-.05v0.1a1.045,1.045,0,0,0,.435,0v-0.1A0.791,0.791,0,0,0,582.822,1111.31Zm0.85,0.39a1.925,1.925,0,0,0,1.187,0c-0.727.1-.462-0.25-0.971-0.24C583.791,1111.52,583.791,1111.63,583.672,1111.7Zm7.036,0.57a0.463,0.463,0,0,0,0-.43H590.27A0.448,0.448,0,0,0,590.708,1112.27Zm0.412-.34c0.072,0.29.532,0.06,0.532-.09C591.336,1111.8,591.458,1111.97,591.12,1111.93Zm-48.087,1.02a1.365,1.365,0,0,1,.534.04c-0.025-.09.146-0.09,0.218-0.14a1.329,1.329,0,0,1-.534-0.05A1.713,1.713,0,0,1,543.033,1112.95Zm1.286,0a0.9,0.9,0,0,0,.751,0A0.911,0.911,0,0,0,544.319,1112.95Zm1.066,0.04a3.747,3.747,0,0,0,1.578.05A1.879,1.879,0,0,0,545.385,1112.99Zm40.009,0.68a4.027,4.027,0,0,0,1.7.09,1.873,1.873,0,0,1,.1-0.43C586.534,1113.42,585.975,1113.55,585.394,1113.67Zm-4.052.09a0.469,0.469,0,0,0,.218.44,3.835,3.835,0,0,1,.631.04,1.2,1.2,0,0,0-.437-0.38,6.224,6.224,0,0,1,.656-0.34C581.923,1113.55,581.826,1113.74,581.342,1113.76Zm1.6,0.15a1.026,1.026,0,0,0,.944-0.34,4.277,4.277,0,0,1-.532-0.05C583.379,1113.73,582.748,1113.63,582.944,1113.91Zm-18.417.14a2.224,2.224,0,0,0,.631.05C565.183,1113.88,564.624,1113.86,564.527,1114.05Zm23.51-9.71c0.075,0.45,1.19.26,1.821,0.19-0.122.13-.122,0.2,0.316,0.19,0,0.21-.438.22-0.631,0.1-0.05.03-.269,0.18,0,0.19a19.5,19.5,0,0,1-3.518-.24C586.169,1104.38,586.994,1104.18,588.037,1104.34Z" transform="translate(-373 -1099)"/>
</svg>
