<svg xmlns="http://www.w3.org/2000/svg" width="155.002" height="15.898" viewBox="0 0 156 16">
  <defs>
    <style>
      .cls-1 {
        fill: #fc4341;
        fill-rule: evenodd;
      }
    </style>
  </defs>
  <path id="Shape_632_copy" data-name="Shape 632 copy" class="cls-1" d="M813.844,1144.53c0.172,0.3.864,0.04,0.894,0.48h0.346c-0.392.34-1.021-.06-1.444,0.05A2.652,2.652,0,0,1,813.844,1144.53Zm3.376,0.91a0.2,0.2,0,0,0,.22-0.09c0.158-.02-0.047.22,0.2,0.14a1.725,1.725,0,0,1-1.177-.1C816.5,1145.2,817.282,1145.18,817.22,1145.44Zm-4.743.19c0.188-.25.864,0.1,0.9-0.24,0.235,0.05,0,.12.063,0.29a2.314,2.314,0,0,0,.55-0.29,6.331,6.331,0,0,0,1.239.24c-0.109.6,1.147,0.07,1.179,0.63a0.586,0.586,0,0,1-.55-0.19,4.1,4.1,0,0,1-2.01-.34A3.607,3.607,0,0,1,812.477,1145.63Zm10.538,3.42c-0.111.14-.534,0.08-0.345,0.29-0.173-.06-0.472-0.16-0.2-0.24a1.714,1.714,0,0,1-1.318,0c-0.033-.04.345-0.19-0.063-0.14C821.476,1148.46,822.686,1148.9,823.015,1149.05Zm1.711-.14a0.227,0.227,0,0,1,.221.19c-0.221.03-.205-0.08-0.425-0.05C824.538,1148.96,824.759,1149.02,824.726,1148.91Zm-0.956.05a2.134,2.134,0,0,1,.689.04A0.49,0.49,0,0,1,823.77,1148.96Zm4.333,0.09c0.047,0.19-.376.05-0.549,0.1C827.523,1148.96,827.93,1149.09,828.1,1149.05Zm-5.292.29h0.346C823.171,1149.51,822.748,1149.54,822.811,1149.34Zm0.817,0.63c-0.174.13-.9,0.16-0.9-0.1A2.019,2.019,0,0,1,823.628,1149.97Zm0.831,0.14a1.325,1.325,0,0,1-.752-0.1C823.816,1149.86,824.508,1149.86,824.459,1150.11Zm0.55-.14h0.346a0.369,0.369,0,0,1-.408.14A0.216,0.216,0,0,0,825.009,1149.97Zm0.959,0.81c0.093,0.27-.315.2-0.471,0.29C825.151,1150.84,825.559,1150.68,825.968,1150.78Zm1.24,0c-0.126.15-.079,0.13-0.2,0.29a2.29,2.29,0,0,1-.485-0.05v-0.19A3.633,3.633,0,0,1,827.208,1150.78Zm-0.957.05c0.33,0,0,.32-0.142.14C826.156,1150.92,826.265,1150.92,826.251,1150.83Zm1.586,0c0.283-.04.345,0.07,0.612,0.04,0.047,0.32-.6.16-0.958,0.2C827.349,1150.97,828.134,1151.07,827.837,1150.83Zm1.162,0a0.351,0.351,0,0,1-.408.24A0.546,0.546,0,0,1,829,1150.83Zm-14.465.04c0.127,0.03.267,0.31-.063,0.25A2.541,2.541,0,0,1,814.534,1150.87Zm10.334,0.1v0.15a5.022,5.022,0,0,0-.692,0A1.471,1.471,0,0,1,824.868,1150.97Zm-0.2.34c-0.472.29-1.477-.11-1.853,0.1-0.125-.28.55-0.31,0.55-0.1A8.1,8.1,0,0,1,824.664,1151.31Zm-12.941.1a0.491,0.491,0,0,1,.471,0C812.131,1151.59,811.834,1151.46,811.723,1151.41Zm9.909,0.67a15.883,15.883,0,0,1-1.585-.15c-0.079-.06-0.016-0.07,0-0.14A2.473,2.473,0,0,1,821.632,1152.08Zm-2.684.04c0.393,0.07.832,0.07,0.753,0.34a4.058,4.058,0,0,0-.753-0.09A0.239,0.239,0,0,0,818.948,1152.12Zm-27,1.88a0.643,0.643,0,0,1-.549.1C791.354,1153.91,791.779,1154.04,791.951,1154Zm1.728-11.34c0.173,0.08.157,0.37,0.409,0.52,0.093-.01.722-0.02,0.611-0.33a5,5,0,0,0,1.446-.15c0.062,0.16-.221.07-0.267,0.15,0.346,0.25,1.523-.19,1.381.48a4.081,4.081,0,0,0,.613.24c-0.142-.23.016-0.37,0.346-0.48,0.313-.02-0.237.32,0.141,0.38,0.093-.03-0.063-0.14.126-0.19a0.756,0.756,0,0,1,.564.1c0.975-.24,2.56.59,3.44,0.14,0.188,0.05.378,0.32,0.141,0.38a7.378,7.378,0,0,0,1.79-.09,0.613,0.613,0,0,1,.142.24,0.726,0.726,0,0,0,.267-0.29,0.62,0.62,0,0,1,.55.29,1.929,1.929,0,0,0,1.1-.34c0.156,0.1-.033.14,0,0.29a1.5,1.5,0,0,0,.344-0.05c0.127,0.09.016,0.12,0,.24a1.285,1.285,0,0,1,.424-0.09c0.88,0.47,2.294-.37,2.67.57a7.554,7.554,0,0,1-1.648.15,7.509,7.509,0,0,1,1.035.39,1.148,1.148,0,0,1,.613-0.29c0.125,0.13.111,0.34,0.22,0.47a2.193,2.193,0,0,1,.9-0.33c0.392,0.33,1.351.27,1.444,0.81a10.8,10.8,0,0,1,1.367.15c0.014,0.16-.188.02-0.33,0.15a0.785,0.785,0,0,1-.283.62,2.325,2.325,0,0,0,.55-0.24,0.321,0.321,0,0,1,.063-0.43c0.5,0.12.894-.04,1.46,0.05,0.581,0.08.989,0.43,1.507,0.04a0.45,0.45,0,0,1,.346.24,17.568,17.568,0,0,1,3.377.29,0.5,0.5,0,0,1,.267.24,0.619,0.619,0,0,1,.691.14,1.061,1.061,0,0,1,.282-0.14c0.079,0.18.6,0.07,0.691,0.24-0.1.07-.313,0.05-0.2,0.24-0.518-.16-1.476-0.11-1.46-0.38-0.692.55-1.523,0.23-2.465,0.24a13.919,13.919,0,0,0,2.465.48c-0.237.19,0.455,0.55,0.487,0.38a1.677,1.677,0,0,1-.2.58c-0.19.1-.692,0.05-0.487,0.29a2.233,2.233,0,0,0-.613-0.05c0.016,0.06-.016.09-0.079,0.1,0.409,0.41,1.509.33,1.932,0.72,0.22-.03.5-0.19,0.55,0.05-0.676.13-1.477-.26-1.995-0.15a1.99,1.99,0,0,0,.55.39,14.111,14.111,0,0,1,2.686.33c0.031,0.16-.236.13-0.063,0.24a4.876,4.876,0,0,0,.486-0.19c0.016,0.09.016,0.21,0.2,0.19,0.174-.08.221,0.07,0.126-0.14h0.424c0,0.14.2,0.24,0.063,0.33a8.289,8.289,0,0,0-1.711.1,0.355,0.355,0,0,0,.2-0.33,1.819,1.819,0,0,0-.691.09,4.98,4.98,0,0,0-.409-0.29c-0.047.13-.095,0.17,0.063,0.24a8.047,8.047,0,0,0-1.444-.14c0.188,0.35.894,0.33,0.957,0.77,0.236,0.04.11-.18,0.283-0.19a1.672,1.672,0,0,1,.55.19c-0.063.32-.66,0.05-0.55,0.29a5.067,5.067,0,0,0-1.932-.05c-0.188-.12.126-0.07,0.142-0.19-0.738.21-1.46-.17-1.994,0a4.471,4.471,0,0,0,1.1.24c0.016,0.12-.267.04-0.2,0.19a0.741,0.741,0,0,0-.69-0.05,0.609,0.609,0,0,0-.77-0.09,0.976,0.976,0,0,1-.267-0.24,1.732,1.732,0,0,1-1.649-.2,1.564,1.564,0,0,1-1.037.05,0.525,0.525,0,0,0,.346-0.43c-0.439-.19-0.88.18-1.1-0.1-0.172.15,0.1,0.3,0.345,0.29-0.831.64-2.228-.04-3.312,0.1a1.379,1.379,0,0,1-.755.14c0.456,0.36,1.414.12,1.711,0.39,0.2,0.01.079-.18,0.221-0.19,1.068-.01,1.571.11,2.544,0.14a0.94,0.94,0,0,1,.063.19,0.782,0.782,0,0,1,.424-0.19c0.11,0.21.55,0.02,0.676,0.29a6.615,6.615,0,0,1,2.214.09c0.047,0.17.063,0.17,0.142,0.39a10.72,10.72,0,0,0-1.321-.15,0.5,0.5,0,0,0-.125.29c0.141,0.09.534,0.01,0.408,0.29a2.094,2.094,0,0,1,.613.15,7.733,7.733,0,0,1-2.34-.2,6.773,6.773,0,0,1,.692-0.09v-0.24a2.41,2.41,0,0,0-.613.14c-0.016-.08.079-0.1,0.063-0.19a1.241,1.241,0,0,0-.975.05,5.505,5.505,0,0,0-.548-0.25c-0.142.04-.016,0.27-0.065,0.39,0.441,0.27.85-.3,1.3,0.05,0.032,0.12-.267.04-0.2,0.19a30.433,30.433,0,0,0-3.644-.14,0.878,0.878,0,0,0-.69.19c1.289-.03,3.22.02,4.539,0.14,0,0.1.188,0.06,0.141,0.2a3.185,3.185,0,0,1,1.932,0c0.424,0.07,1.209-.12,1.3.23a10.312,10.312,0,0,1-2.136-.04,0.894,0.894,0,0,1,.219-0.15c-0.142-.01-0.219.01-0.219,0.1a17.465,17.465,0,0,0-2.608,0c-0.031-.09-0.314,0-0.219-0.19a0.884,0.884,0,0,1-.675.05c-0.079.2-.472,0.28-0.283,0.53a8.591,8.591,0,0,0-1.507.33c-0.111.2,0.344,0.01,0.344,0.15,0.032,0.23-.376.07-0.565,0.04a13.53,13.53,0,0,1-2.685.34c-0.142.02-.016,0.24-0.063,0.34a14.932,14.932,0,0,1-2.544-.15,2.157,2.157,0,0,1-1.869.05,5.2,5.2,0,0,1-2.685,0,3.3,3.3,0,0,1-2.827-.48,0.47,0.47,0,0,1,.564,0,0.707,0.707,0,0,0,.346-0.19,2.793,2.793,0,0,0-1.382.09,0.314,0.314,0,0,0,0,.29c-0.77-.15-2.182.19-2.622-0.48a1.931,1.931,0,0,0-1.036.1c-0.378-.33-1.242-0.08-2-0.19a0.34,0.34,0,0,0-.141-0.24,1.3,1.3,0,0,0-1.02.28c-2.073-.22-4.335-0.36-6.408-0.53a7.948,7.948,0,0,1-1.586-.14c-1.084-.03-2.182.29-2.89-0.29a1.86,1.86,0,0,1-.691.29,7.269,7.269,0,0,0-1.932-.14,0.291,0.291,0,0,0-.062-0.29c-0.581.04-1.161,0.59-1.728,0.19-0.236-.03-0.172.17-0.408,0.14-0.706-.51-2.168.34-2.623-0.38a2.073,2.073,0,0,1-1.507-.1c-0.173.22-.44,0.01-0.55-0.09-0.236-.01-0.173.17-0.283,0.24-0.973-.11-2.261.17-2.968-0.24a5.414,5.414,0,0,0-.753.19,0.378,0.378,0,0,1-.267-0.29,0.67,0.67,0,0,1-.833-0.19c-0.158.01-.33,0.03-0.267,0.19a0.905,0.905,0,0,1-.22-0.14,0.656,0.656,0,0,0-.2.33c-0.864-.06-2.638-0.42-3.376-0.14-1.179-.18-2.732.09-3.723-0.24a5.437,5.437,0,0,0-.752.29c-1.179-.21-1.839-0.11-2.89-0.34a2.33,2.33,0,0,1-1.729.14,0.713,0.713,0,0,1-.2.25c-1.053-.12-2.467.02-3.094-0.39a0.712,0.712,0,0,0-.346.19,10.114,10.114,0,0,0-2.072.05c-0.88-.39-2.451.39-3.644-0.24a2.309,2.309,0,0,1-1.728.05c-0.2.05-.675,0.37-0.895,0.09-0.455-.01-1,0.11-1.649.1-0.062,0-.22-0.1-0.267-0.1a2.482,2.482,0,0,1-1.46-.09c-1.225.24-2.434-.18-3.644,0.05-0.659-.25-1.177-0.06-1.79-0.25a0.718,0.718,0,0,0-.487.2c-0.534-.21-1.68.1-2.057-0.2-0.44.36-1.1,0-1.587-.05-0.627-.04-1.586.33-2.136-0.04-1.35.26-3.124-.29-4.475,0.09-1.24-.53-2.906.21-4.271-0.14a54.224,54.224,0,0,1-6.816.14,0.892,0.892,0,0,0-.345.15,7.194,7.194,0,0,0-2,.14c-1.523-.27-2.951.14-4.35,0-0.093-.03,0-0.18-0.126-0.19-0.281.15-.863,0.41-1.1,0.05a2.647,2.647,0,0,1-1.383.14c-0.3.3-.973,0.06-1.523,0.25a3.492,3.492,0,0,0-2.2.24,3.2,3.2,0,0,0-1.523.14,1.644,1.644,0,0,0-1.021.1,10.471,10.471,0,0,0-1.869,0c-0.346,0-.786-0.03-1.021,0a17.955,17.955,0,0,1-2.215.33c-1.193-.02-2.2.42-3.377,0.2a2.7,2.7,0,0,1-1.994.04,18.963,18.963,0,0,1-4.884.44c-0.251.02-.172-0.18-0.424-0.15a6.488,6.488,0,0,1-2.607-.14c0.142-.39-0.36-0.33-0.55-0.49-0.031-.29.3-0.81-0.281-0.81,0.046-.52-0.88-0.72-1.242-1.11,0.142-.24.016-0.33-0.2-0.43,0.157-1.23-.973-2.2-0.486-3.65-0.315-.51.518-1.28-0.2-1.59,0.471-.27.14-0.82,0.077-1.25a3.137,3.137,0,0,1,.9-0.53,3.788,3.788,0,0,1,.9-1.39c1.836-.43,2.024-2.02,3.784-2.51,1-.06,1.555.61,2.481,0.29a10.3,10.3,0,0,0,3.5.39c0.518-.03.973-0.15,1.586-0.15,0.659,0,1.335-.19,2.215-0.24,1.476-.07,3.061-0.22,4.538-0.33,0.645-.05,1.288.03,1.728,0a7.735,7.735,0,0,1,2.749-.1c0.188-.06.36-0.13,0.548-0.19a0.947,0.947,0,0,1,.487.09,0.871,0.871,0,0,0,.409-0.19c2.936-.02,6.156-0.25,8.811-0.48a36.646,36.646,0,0,0,3.925-.14c0.393,0.18.848-.11,1.242,0.09a3.657,3.657,0,0,1,1.319-.19,2.265,2.265,0,0,1,.471.19,23.851,23.851,0,0,0,2.967-.14c0.157-.03.1,0.09,0.2,0.09a2.625,2.625,0,0,0,.55-0.14c0.8,0,1.43.22,2.214,0.24,1.1,0.02,2.294-.43,3.236.09,0.471-.35,1.084-0.03,1.853-0.19a2.4,2.4,0,0,1,.408.29,2.565,2.565,0,0,1,2.214.05,1.371,1.371,0,0,0,.472-0.2c1.021,0.14,2.513-.18,3.6.15,0.189,0.01.2-.11,0.408-0.1a4.241,4.241,0,0,1,1.587.54c0.973-.23,3.234-0.6,3.988.04a1.325,1.325,0,0,0,.488-0.19,13.863,13.863,0,0,1,3.031.34,2.634,2.634,0,0,1,1.3-.24c-0.016.08,0.078,0.1,0.062,0.19-0.016.13-.251,0.11-0.267,0.24a0.549,0.549,0,0,0,.346.19,2.549,2.549,0,0,0,1.163-.57,14.214,14.214,0,0,1,3.454.09,13.453,13.453,0,0,1,2.953.05c-0.031.27-.142,0.54,0.345,0.53,0.235-.13.142-0.18,0.142-0.43a10.235,10.235,0,0,1,2.34-.1,0.561,0.561,0,0,0,.408.29,2.173,2.173,0,0,0,.973-0.39c1.618,0.09,2.593-.05,4.053.05,0.079,0.05.141,0.1,0.22,0.15,1.131-.41,2.559.07,3.705-0.2a2.069,2.069,0,0,1,.692.2,4.357,4.357,0,0,1,2.135.09c1.351-.25,2.921.21,4.272,0.05a1.958,1.958,0,0,0,1.445.19,0.142,0.142,0,0,1,.142.14,1.183,1.183,0,0,1,1.3.2,5.717,5.717,0,0,0,1.179-.2c0.031,0.14.031,0.14,0.267,0.2a2.369,2.369,0,0,1,1.806.14,2.28,2.28,0,0,1,1.507.15,3.769,3.769,0,0,1,2.34.38c1.884-.34,4.256.57,6.2,0.39,0.077,0.11-.048.1,0.141,0.19a4.5,4.5,0,0,1,1.711.14c0.284,0,.534-0.15.833-0.14,0.251,0.01.534,0.2,0.816,0.24a2.537,2.537,0,0,1,1.037.05,0.91,0.91,0,0,1,.346-0.2c0.313,0,.141.32,0.485,0.3,0.221,0.03.1-.16,0.205-0.2C792.626,1142.36,793.255,1142.89,793.679,1142.66Zm11.558,2.4a0.177,0.177,0,0,1,.142.1,2.563,2.563,0,0,1,1.241.09,2.952,2.952,0,0,0-.613-0.62A0.731,0.731,0,0,0,805.237,1145.06Zm5.026,0.43c-0.016.15,0.236,0.1,0.345,0.14a1.473,1.473,0,0,1,.283-0.28A2.505,2.505,0,0,1,810.263,1145.49Zm-11.214.82a4.72,4.72,0,0,0,.675-0.05c-0.077-.26-0.471-0.04-0.675-0.24A0.246,0.246,0,0,0,799.049,1146.31Zm16.318,0.57a0.953,0.953,0,0,0,.487-0.23C815.539,1146.6,815.242,1146.8,815.367,1146.88Zm-9.36.97c0.251-.02.565,0.25,0.613-0.05C806.337,1147.86,806.038,1147.67,806.007,1147.85Zm4.476,0.43a0.518,0.518,0,0,0,.267-0.05c-0.1-.55-0.738-0.23-1.1-0.48,0.016,0.09-.079.11-0.063,0.19a1.741,1.741,0,0,1,.55.1c0,0.11-.062.15-0.22,0.14a1.976,1.976,0,0,0-1.507.05,6.954,6.954,0,0,0,1.79.19c-0.063-.15.236-0.06,0.2-0.19-0.172,0-.172-0.18,0-0.19A1.762,1.762,0,0,1,810.483,1148.28Zm3.642-.05c-0.125-.24.253-0.15,0.283-0.29a1.443,1.443,0,0,0-.627-0.19C813.452,1147.93,813.749,1148.4,814.125,1148.23Zm-2.621-.19a1.509,1.509,0,0,1,.486.09v-0.24A0.549,0.549,0,0,0,811.5,1148.04Zm-0.55.34a1.107,1.107,0,0,0,.832.14v-0.24C811.5,1148.14,811.047,1148.07,810.954,1148.38Zm5.246,0.28a5.121,5.121,0,0,0-.629-0.19C815.462,1148.73,816.121,1148.69,816.2,1148.66Zm-0.9,0c0.016-.12-0.1-0.15-0.283-0.14C815.005,1148.65,815.116,1148.68,815.3,1148.66Zm-3.031.92a0.919,0.919,0,0,0-.221.34,1.974,1.974,0,0,0,.488,0c-0.093-.25.22-0.21,0.2-0.39-0.346-.2-0.109-0.51-0.408-0.72-0.017.3-.393-0.12-0.488,0.19,0.237,0.01.394,0.36,0.142,0.48-0.126-.11-0.486-0.07-0.486-0.38a0.3,0.3,0,0,0,.282-0.34c-0.565-.1-1.194.32-1.649,0.1,0-.1.188-0.06,0.126-0.2a0.5,0.5,0,0,0-.55.15c0.062,0.2.612,0.06,0.487,0.38a3.91,3.91,0,0,0,.55.15,0.119,0.119,0,0,1,.141-0.05c0.219-.09-0.236-0.16,0-0.24A3.108,3.108,0,0,0,812.273,1149.58Zm0.471-.2a1.206,1.206,0,0,1,.975.34c0.172,0.04.281-.21,0.406-0.05a0.551,0.551,0,0,0-.139.77c0.5-.24.3-0.82,0.139-1.25a1.171,1.171,0,0,1-.831.05,0.379,0.379,0,0,0,.079-0.33C812.869,1148.8,812.9,1149.19,812.744,1149.38Zm2.969-.04v0.19a1.765,1.765,0,0,1,1.035.34c-0.251-.29.441-0.2,0.613-0.34-0.141-.02-0.016-0.21-0.2-0.19a1.274,1.274,0,0,1-1.177-.1C815.964,1149.33,815.869,1149.35,815.713,1149.34Zm-8.749.19a7.313,7.313,0,0,0,2.059.29c0.125-.11.392-0.12,0.346-0.34a2.154,2.154,0,0,0-1.305.1c-0.016-.06.016-0.14-0.062-0.15A3.677,3.677,0,0,1,806.964,1149.53Zm12.674,0.34a0.677,0.677,0,0,0,.487-0.2,0.865,0.865,0,0,0-.628-0.09A0.374,0.374,0,0,1,819.638,1149.87Zm-3.579-.1c-0.079.15,0.155,0.09,0.266,0.1v-0.15A0.632,0.632,0,0,0,816.059,1149.77Zm0.894,1.01c0.3-.03-0.251-0.18-0.063-0.43a1.747,1.747,0,0,0,.2-0.1c0.409,0.1,1.1-.01,1.242.29,1.035-.3,1.523.48,2.339,0.14-0.5-.33-1.445-0.1-1.868-0.52-0.6.22-1.743-.25-2.544-0.15C816.2,1150.47,816.781,1150.48,816.953,1150.78Zm-3.989-.14a0.36,0.36,0,0,0,.2.23,4.372,4.372,0,0,0,.267-0.38A1.02,1.02,0,0,0,812.964,1150.64Zm-0.912.28c0-.16.267-0.14,0.488-0.14,0.016-.12-0.016-0.21-0.2-0.19C812.289,1150.72,811.646,1150.77,812.052,1150.92Zm3.928,0a0.652,0.652,0,0,0,.141.25,2.454,2.454,0,0,0,.346-0.05C816.53,1150.9,816.184,1150.81,815.98,1150.92Zm4.695,0.2a1.532,1.532,0,0,0,.409-0.25h-0.346A0.64,0.64,0,0,0,820.675,1151.12Zm-17.353.14a2.081,2.081,0,0,0,1.1.1A0.794,0.794,0,0,0,803.322,1151.26Zm1.915,0.1c0.142,0.12.267,0.23,0.425,0.34-0.2.11-.5,0.16-0.692,0.28a6.452,6.452,0,0,0,.692.14c0.627-.21,0-0.57.125-0.91A0.683,0.683,0,0,0,805.237,1151.36Zm2.419,0a1.478,1.478,0,0,1,.408.34v-0.29a0.81,0.81,0,0,0,.488-0.15,1.055,1.055,0,0,1-.755-0.05C807.813,1151.31,807.7,1151.31,807.656,1151.36Zm1.163-.05v0.1a0.443,0.443,0,0,0,.281,0v-0.1C808.96,1151.23,809.007,1151.31,808.819,1151.31Zm0.55,0.39a0.8,0.8,0,0,0,.768,0c-0.471.1-.3-0.25-0.629-0.24C809.446,1151.52,809.446,1151.63,809.369,1151.7Zm4.554,0.57a0.694,0.694,0,0,0,0-.43H813.64C813.7,1152.11,813.686,1152.19,813.923,1152.27Zm0.267-.34c0.046,0.29.344,0.06,0.344-.09C814.33,1151.8,814.408,1151.97,814.19,1151.93Zm-31.127,1.02a0.586,0.586,0,0,1,.345.04c-0.016-.09.1-0.09,0.142-0.14a0.577,0.577,0,0,1-.346-0.05A1.212,1.212,0,0,1,783.063,1152.95Zm0.833,0a0.4,0.4,0,0,0,.485,0C784.225,1152.91,783.942,1152.77,783.9,1152.95Zm0.689,0.04a1.6,1.6,0,0,0,1.022.05A0.841,0.841,0,0,0,784.585,1152.99Zm25.9,0.68a1.726,1.726,0,0,0,1.1.09,2.821,2.821,0,0,1,.065-0.43A11.5,11.5,0,0,0,810.483,1153.67Zm-2.623.09a0.583,0.583,0,0,0,.142.44,1.628,1.628,0,0,1,.408.04,1.019,1.019,0,0,0-.283-0.38,3.768,3.768,0,0,1,.425-0.34C808.236,1153.54,808.174,1153.74,807.86,1153.76Zm1.037,0.15a0.581,0.581,0,0,0,.611-0.34,1.826,1.826,0,0,1-.344-0.05C809.179,1153.73,808.77,1153.63,808.9,1153.91Zm-11.921.14a0.955,0.955,0,0,0,.409.05C797.4,1153.88,797.039,1153.86,796.976,1154.05Zm15.218-9.71c0.048,0.45.77,0.26,1.179,0.19-0.079.13-.079,0.2,0.2,0.19,0,0.21-.283.22-0.408,0.1-0.033.03-.174,0.18,0,0.19a8.282,8.282,0,0,1-2.278-.24A1,1,0,0,1,812.194,1144.34Z" transform="translate(-673 -1139)"/>
</svg>
