<svg xmlns="http://www.w3.org/2000/svg" width="147.03" height="172.031" viewBox="0 0 147.03 172.031">
  <path class="fill-dark" d="M1574.27,356.249c1.81,1.6,7.63.589,10.14-1.759,3.92-3.668,5.47-5.237,6.21-6.276,0.26-.362,2.46-2.9,4.87-5.63s5.67-6.485,7.21-8.328,5.38-6.372,8.56-10.077,7.1-8.33,8.76-10.312,4.68-5.59,6.72-8.032c4.4-5.238,5.52-6.627,8.68-10.762,1.32-1.734,2.47-3.161,2.56-3.184a17.027,17.027,0,0,0,1.56-2.064c0.78-1.124,1.98-2.724,2.7-3.6,2.15-2.589,5.06-6.291,5.48-6.982,0.23-.364,1.04-1.45,1.8-2.412,3.8-4.809,4.72-6.016,4.94-6.514a10.612,10.612,0,0,1,1.33-1.743,7.832,7.832,0,0,0,1.25-1.7,12.834,12.834,0,0,1,1.64-2.162,24.82,24.82,0,0,0,2.22-2.967,6.2,6.2,0,0,1,1.12-1.508,8.214,8.214,0,0,0,1.36-1.8c0.56-.884,1.72-2.6,2.61-3.843s1.95-2.738,2.36-3.349,1.35-1.881,2.1-2.841a29.168,29.168,0,0,0,1.73-2.389c0.21-.357,1.03-1.544,1.81-2.615a35.475,35.475,0,0,0,2.07-3.164,22.272,22.272,0,0,1,2.09-2.978,12.75,12.75,0,0,0,1.67-2.441,29.707,29.707,0,0,1,2.5-3.85,26.7,26.7,0,0,0,3.29-5.17,19.811,19.811,0,0,1,1.42-2.2,26.921,26.921,0,0,0,1.68-2.647,19.073,19.073,0,0,1,1.33-2.112,17.5,17.5,0,0,0,2.26-3.77,2.649,2.649,0,0,1,.56-0.964,16.791,16.791,0,0,0,2.18-3.612c0.49-1.154,2.84-5.633,3.54-6.736a29.591,29.591,0,0,0,2.4-5.206c0.06-.314.35-1.471,0.65-2.577,0.61-2.289.42-5.152-.43-6.465a10.3,10.3,0,0,0-3.75-3.215,20.221,20.221,0,0,0-5.85-1.3,53,53,0,0,0-9.58,1.131,68.825,68.825,0,0,0-7.32,2.226c-0.37.2-.84,0.37-6.08,2.22a57.24,57.24,0,0,0-5.75,2.218c-0.1.083-1.6,0.584-3.31,1.112s-4.28,1.352-5.71,1.825a45.758,45.758,0,0,1-7.16,1.923,34.212,34.212,0,0,1-11.39.588c-1-.179-3.63-0.656-5.82-1.055a53.174,53.174,0,0,0-6.31-.79c-1.28-.034-3.51-0.162-5-0.285a22.647,22.647,0,0,0-3.81-.049,23.334,23.334,0,0,1-3.13.135,18.219,18.219,0,0,0-2.35.052c-0.2.05-1.79,0.205-3.53,0.343s-3.47.327-3.83,0.418a22.377,22.377,0,0,1-3.36.124c-1.48-.024-4.63.056-6.96,0.177s-4.64.206-5.09,0.188c-1.05-.042-5.65.394-9.83,0.934a38.174,38.174,0,0,0-6.81,1.409,21.353,21.353,0,0,0-6.17,2.428,13.313,13.313,0,0,0-4.6,3.488,32.723,32.723,0,0,0-2.23,2.523c-1.23,1.971-1.94,7.066-1.2,8.576a8.922,8.922,0,0,1,.54,2.137c0.38,3.138,3.83,8.155,6.51,9.457,0.51,0.246,1.79.875,2.85,1.393,4.66,2.281,11.79,3.189,20.17,2.569,1.49-.111,3.51-0.2,4.53-0.2,1,0,2.71-.079,3.75-0.17,2.38-.207,4.18.084,5.38,0.875,0.81,0.527,1.05.872,1.64,2.349a14.013,14.013,0,0,1,1.08,8.5c-0.07.573-.2,2.062-0.3,3.293a18.863,18.863,0,0,1-.35,2.765,16.81,16.81,0,0,0-.39,2.382,10.706,10.706,0,0,1-.38,2.105,11.513,11.513,0,0,0-.53,1.891c-0.19.907-.46,2.023-0.58,2.483a10.585,10.585,0,0,0-.22,2.356,18.391,18.391,0,0,1-1.6,6.49,4.715,4.715,0,0,0-.55,1.746,10.11,10.11,0,0,1-.34,1.809,8.707,8.707,0,0,0-.29,1.813,10.49,10.49,0,0,1-.46,2.319,10.2,10.2,0,0,0-.24,4.382,11.579,11.579,0,0,0,1.11,2.569,7.461,7.461,0,0,0,3.67,3.619c1.57,0.9,1.71,1.42,1.01,3.767a19.694,19.694,0,0,1-1.03,2.785,14.872,14.872,0,0,0-.87,2.52,14.938,14.938,0,0,1-1.08,2.941,6.151,6.151,0,0,0-.64,1.447,19.07,19.07,0,0,1-.78,2.3c-0.4,1.054-1.28,3.393-1.94,5.17a24.937,24.937,0,0,1-2,4.292,9.126,9.126,0,0,0-1.21,2.42,10.194,10.194,0,0,1-.85,2.043,16.113,16.113,0,0,0-1.73,3.689,25.121,25.121,0,0,1-1.52,3.322,35.949,35.949,0,0,0-1.66,3.535,47.158,47.158,0,0,1-3.1,7.374,9.955,9.955,0,0,0-1.06,2.262,12.987,12.987,0,0,1-.94,2.249,4.207,4.207,0,0,0-.53,1.638,6.467,6.467,0,0,1-.54,1.982,2.525,2.525,0,0,0,0,2.624,3.692,3.692,0,0,0,1.24,1.8l0.7,0.463-2.37,2.652c-1.87,2.1-2.58,2.747-3.43,3.115a3.664,3.664,0,0,0-2.3,2.489c-0.16.8-.11,0.92,0.63,1.571h0Z" transform="translate(-1554.97 -185)"/>
</svg>
