<svg xmlns="http://www.w3.org/2000/svg" width="217.78" height="102.031" viewBox="0 0 217.78 102.031">
  <path class="fill-primary" d="M1121.83,592.427c-0.36.982,0.34,2.719,1.6,3.981,0.96,0.958,1.27,1.1,3.67,1.726a27.381,27.381,0,0,0,9.55.789c3.2-.324,3.84-1.134,2.55-3.238a6.054,6.054,0,0,0-3.51-2.725c-0.65-.174-2.82-0.534-4.86-0.805a45.974,45.974,0,0,1-4.57-.771c-1.76-.574-4.04-0.039-4.43,1.043h0Zm7.74,27.136c0.37,2.335,3.84,5.339,7.85,6.8a39.59,39.59,0,0,0,8.52,2.11c0.98,0.052,2.1.122,2.53,0.157a25.94,25.94,0,0,0,4.85-.315c0.61-.109,1.88-0.274,2.82-0.368,1.99-.2,2.41-0.515,2.37-1.813-0.04-1.5-.6-2.493-2.27-4.014a6.09,6.09,0,0,0-3.23-1.819,21.529,21.529,0,0,0-6.52-.672,19.55,19.55,0,0,1-2.72-.136c-0.56-.091-2.32-0.246-3.89-0.345a41.874,41.874,0,0,1-6.03-.947c-2.96-.721-3.2-0.73-3.79-0.142a1.686,1.686,0,0,0-.49,1.5h0Zm36.27-34.45a4.205,4.205,0,0,0,.54,1.912c1.44,2.53,2.63,2.987,7.52,2.907,4.3-.071,9.73.084,11.92,0.341a2.886,2.886,0,0,0,1.73-.179c0.44-.437.01-2.1-0.73-2.837-0.78-.778-3.87-1.487-8.05-1.849a72.04,72.04,0,0,1-9.85-1.408c-1.29-.339-2.48-0.3-2.85.094a2.677,2.677,0,0,0-.23,1.019h0Zm-12.34,13.865a6.622,6.622,0,0,0,3.17,3.9,2.675,2.675,0,0,0,3.16-.032,12.4,12.4,0,0,1,3.78-.807l3.93-.358c0.58-.054,1.61-0.112,2.3-0.131,1.73-.046,2.44-0.786,1.96-2.041a4.418,4.418,0,0,0-3.86-2.918c-0.58-.045-1.92-0.163-3-0.266a14.689,14.689,0,0,0-2.03-.115,7.108,7.108,0,0,1-1.34.01c-0.7-.033-2.55.006-4.08,0.084-3.43.175-4.39,0.821-3.99,2.676h0Zm52.34-1.352c-0.11,1.621,1.81,4.316,4.46,6.239a15.514,15.514,0,0,0,7.78,2.146c1.42,0.029,2.79.057,3.04,0.061s0.92-.044,1.51-0.11a15.044,15.044,0,0,1,2.66.054,23.661,23.661,0,0,0,2.68.134c0.6-.02,1.56-0.021,2.16,0s2.3,0.043,3.79.053,3.06,0.054,3.52.1a1.916,1.916,0,0,0,1.47-.572c0.54-.533.6-0.863,0.33-1.847a6.292,6.292,0,0,0-2.53-3.477c-1.75-1.126-17.98-4.138-22.46-4.169-0.77,0-2.48-.049-3.78-0.1-4.11-.151-4.52-0.02-4.63,1.492h0Zm-28.14,30.3c-0.22,1.27,1.06,3.244,2.82,4.382,0.88,0.566,2.58.714,3.03,0.263a3.932,3.932,0,0,1,2.05.061,21.8,21.8,0,0,0,9.72-.027c1.7-.406,1.89-0.523,2.01-1.247a4.3,4.3,0,0,0-1.8-3.436,9.844,9.844,0,0,0-5.38-1.5,29.692,29.692,0,0,1-3.33-.378,15.74,15.74,0,0,0-5.52-.383c-2.06.179-3.39,1.017-3.6,2.27h0Zm-13.56,35a5.137,5.137,0,0,0,1.44,4.038c1.15,1.152,3.25,2.133,6.39,2.991a36.75,36.75,0,0,0,5.41,1.04c1.28,0.106,2.65.258,3.06,0.341,2.45,0.488,8.38-.549,9.51-1.664s0.47-3.4-1.58-5.453c-1.78-1.786-3.69-2.432-7.4-2.513-0.89-.02-2.74-0.186-4.09-0.368s-3.12-.391-3.89-0.461c-2.07-.187-7.99.276-8.33,0.653a3.807,3.807,0,0,0-.52,1.4h0Zm53.89-39.395a5.08,5.08,0,0,0,2.45,3.722c1.22,0.861,1.71,1.03,4.47,1.552,0.84,0.159,2.37.456,3.36,0.654a38.182,38.182,0,0,0,8.42.7c2.1-.194,4.07-1.756,4.01-3.181a7.25,7.25,0,0,0-1.91-3.742c-1.91-1.889-5.96-3.2-9.61-3.1-3.89.1-5.44,0.266-6.62,0.7a12.681,12.681,0,0,1-1.98.537c-1.56.237-2.63,1.125-2.59,2.163h0Zm-19.23,27.9c-0.38,2.082,1.89,5.55,4.42,6.754,2.61,1.245,7.49,2.225,9,1.807a4.179,4.179,0,0,1,1.13-.177,9.086,9.086,0,0,0,3.85-1.428c1.62-1.021,1.94-1.962,1.2-3.622a6.581,6.581,0,0,0-6.22-3.985c-0.81.038-2.18,0.027-3.01-.023s-2.11-.122-2.82-0.157a24.727,24.727,0,0,1-3.33-.522,10.334,10.334,0,0,0-2.63-.336,2.209,2.209,0,0,0-1.59,1.689h0Zm-22.45,27.887a5.555,5.555,0,0,0,1.54,3.1,11.427,11.427,0,0,0,4.89,2.592c4.98,0.99,10.48.678,14.06-.8,2.57-1.06,2.97-2.886,1.13-5.108-1.04-1.253-2.84-1.926-3.82-1.429-1.13.572-4.98,0.7-12.47,0.414-1.14-.043-2.46-0.145-2.97-0.231-1.02-.171-2.31.632-2.36,1.462h0Zm94.5-79.521c-0.2,1.161,1.71,3.434,3.21,3.809a34.861,34.861,0,0,0,6.03.924,39.065,39.065,0,0,1,4.88.023c1.43,0.089,2.02-.581,1.67-1.885a5.475,5.475,0,0,0-2.93-3.169,23.03,23.03,0,0,0-7.85-1.435,14.718,14.718,0,0,0-2.41.127,2.441,2.441,0,0,1-.89.145,1.794,1.794,0,0,0-1.71,1.461h0Zm-13.52,18.24c-0.06,2.246,1.91,4.034,5.6,5.1a21.984,21.984,0,0,0,7.47.682c0.34-.039,1.07-0.107,1.57-0.148a19.554,19.554,0,0,0,2.82-.625c1.03-.3,2.36-0.68,2.95-0.841,1.94-.525,1.82-2.707-0.25-4.768a6.522,6.522,0,0,0-4.5-2.085c-0.78-.035-2.29-0.109-3.41-0.166a9.033,9.033,0,0,0-2.16.033,1.167,1.167,0,0,1-.72.008,26.288,26.288,0,0,0-5.92.286c-1.92.344-3.42,1.445-3.45,2.527h0Zm-41.57,58.873c-0.45.974-.26,2.125,0.57,3.543,2.15,3.671,5.45,5.4,10.17,5.345a19.066,19.066,0,0,0,6.9-1.047c0.56-.237,1.37-0.553,1.79-0.7,1.49-.506,1.77-2.292.68-4.291a9.523,9.523,0,0,0-3.87-3.651,12.815,12.815,0,0,0-5.78-.185,34.733,34.733,0,0,1-6.24-.258c-2.25-.251-3.74.188-4.22,1.241h0Zm89.22-68.585a5.705,5.705,0,0,0,3.72,3.521,34.63,34.63,0,0,0,6.43,1.481c3.32,0.456,7.23-.227,7.81-1.367,0.75-1.464-1.26-4.429-3.74-5.519-1.64-.72-4.98-0.967-9.17-0.675-4.34.3-5.51,0.892-5.05,2.559h0Zm-46.52,47.987c-0.07,1.014.99,2.776,2.21,3.652,2.47,1.777,7.57,1.947,10.39.348a4.341,4.341,0,0,1,1.55-.5c2.02-.105,2.3-2.131.57-4.16a4.063,4.063,0,0,0-2.57-1.621c-2.71-.861-10.54.066-11.88,1.4a1.794,1.794,0,0,0-.27.88h0Zm33.07-4.637a5.288,5.288,0,0,0,.76,1.484c1.22,1.228,4.39,2.477,8.35,3.3,1.17,0.244,2.38.494,2.67,0.554a12.084,12.084,0,0,0,1.44.156,6.514,6.514,0,0,1,1.37.206,49.906,49.906,0,0,0,8.8.066c1.72-.115,3.38-0.178,3.74-0.141,1.01,0.105,1.6-.752,1.3-1.866a4.935,4.935,0,0,0-3.11-3.084,26.556,26.556,0,0,0-5.86-.7c-0.11.1-7-.523-9.83-0.89-1.47-.192-3.73-0.454-4.97-0.577a24.139,24.139,0,0,1-3.15-.488c-1.35-.4-2.03.5-1.51,1.981h0Zm30.85-13.977a4.542,4.542,0,0,0,2.42,3.091,2.41,2.41,0,0,0,1.1.419,14.279,14.279,0,0,1,2.59.094c4.81,0.407,9.13-.237,10.53-1.57,0.84-.8.56-2.089-0.73-3.386-1.12-1.112-1.86-1.314-4.53-1.217-1.08.039-2.1,0.053-2.29,0.03-0.3-.037-4.82.116-6.66,0.223a3.8,3.8,0,0,0-1.69.725,1.359,1.359,0,0,0-.74,1.591h0Z" transform="translate(-1121.72 -583.75)"/>
</svg>
