<svg xmlns="http://www.w3.org/2000/svg" width="146.688" height="150.282" viewBox="0 0 146.688 150.282">
  <path class="fill-primary" d="M803.034,337.25c3.5-1.571,5.058-3.666,7.45-10.036a25.925,25.925,0,0,0,1.852-8.085c0.228-2.336.377-5.921,0.332-7.957A86.93,86.93,0,0,0,810.6,295.5l-0.678-2.547,0.84-2.671a27.694,27.694,0,0,0,1.1-11.534c-0.352-2.374-.328-2.736.236-3.564a79.6,79.6,0,0,0,5.086-12.834,30.873,30.873,0,0,0,.5-3.76c0.047-.932.355-3.185,0.676-4.939a41.263,41.263,0,0,0,.164-14.359c-1.33-10.517-4.169-21.347-6.866-26.187-0.635-1.14-1.862-3.4-2.761-5.08a54.408,54.408,0,0,0-3.412-5.473c-5.742-7.826-6.476-8.563-10.795-10.838-1.554-.819-3.478-1.909-4.233-2.4-4.621-2.992-9.855-1.886-14.887,3.148-2.012,2.014-4.711,5.956-4.927,7.2a30.731,30.731,0,0,1-1.506,3.429L767.714,206l-1.941-1.318a37.12,37.12,0,0,0-3.9-2.267,37.2,37.2,0,0,1-3.341-1.848c-1.5-.975-4.336-1.922-8.165-2.725a21,21,0,0,1-3.615-1.076c-1.129-.537-3.726-0.659-9.293-0.435a31.446,31.446,0,0,0-5.351.87c-2.985.764-3.068,0.758-5.017-.4a35.228,35.228,0,0,0-10.471-3.954,6.049,6.049,0,0,0-4.111.46,8.3,8.3,0,0,1-3.093.754c-1.829-.064-3.987,1.186-6.146,3.567a8.446,8.446,0,0,1-2.425,2.057,10.3,10.3,0,0,0-3.67,3.04c-0.248.537-2.407-.746-6.122-3.64a8.943,8.943,0,0,0-7.568-1.682c-4.68.809-6.96,3.17-8.937,9.26-2.471,7.609-2.91,19.747-.966,26.667a13.915,13.915,0,0,1,.518,4.734,52.431,52.431,0,0,0,2.029,12.923,67.92,67.92,0,0,0,2.8,6.727c2.125,4.5,3.985,7.219,6.24,9.117,0.624,0.527,1.957,1.8,2.973,2.841,3.017,3.091,4.577,4.216,7.05,5.086,2.246,0.79,2.517.781,6.692-.227a30.811,30.811,0,0,0,5.611-1.8c1.19-.7,1.364-0.677,3.106.474,1,0.664,2.677,1.862,3.67,2.627,1.689,1.3,1.89,1.6,2.693,3.967a45.071,45.071,0,0,0,4.465,10.114c1.118,1.919,2.54,4.55,3.144,5.817a66.47,66.47,0,0,0,5.7,8.224c4.157,5.344,4.876,6.1,7.5,7.846,3.459,2.309,5.045,2.915,7.985,3.05a30.642,30.642,0,0,1,3.641.383,14.055,14.055,0,0,0,4.208-.279c3.721-.751,6.53-0.112,10.054,2.287a21.163,21.163,0,0,0,2.913,1.8,6.1,6.1,0,0,1,1.43,1.391,31.413,31.413,0,0,0,6.214,4.946,28.848,28.848,0,0,1,2.574,2.116,12.313,12.313,0,0,0,3.06,2.043A11.213,11.213,0,0,1,783,331.982a18.368,18.368,0,0,0,3.638,2.972,24.778,24.778,0,0,0,8.75,2.475,18.511,18.511,0,0,1,2.539.3,7.817,7.817,0,0,0,5.1-.475h0Z" transform="translate(-672.375 -187.656)"/>
</svg>
