<svg xmlns="http://www.w3.org/2000/svg" width="95" height="95" viewBox="0 0 95 95">
  <path class="fill-primary" d="M983.414,1342.21a4.211,4.211,0,1,1-4.211-4.22A4.214,4.214,0,0,1,983.414,1342.21Zm21.646,0a4.21,4.21,0,1,1-4.21-4.22A4.21,4.21,0,0,1,1005.06,1342.21Zm21.65,0a4.21,4.21,0,1,1-4.21-4.22A4.217,4.217,0,0,1,1026.71,1342.21Zm21.64,0a4.21,4.21,0,1,1-4.21-4.22A4.21,4.21,0,0,1,1048.35,1342.21Zm21.65,0a4.21,4.21,0,1,1-4.21-4.22A4.21,4.21,0,0,1,1070,1342.21Zm-86.586,21.64a4.211,4.211,0,1,1-4.211-4.21A4.207,4.207,0,0,1,983.414,1363.85Zm21.646,0a4.21,4.21,0,1,1-4.21-4.21A4.2,4.2,0,0,1,1005.06,1363.85Zm21.65,0a4.21,4.21,0,1,1-4.21-4.21A4.21,4.21,0,0,1,1026.71,1363.85Zm21.64,0a4.21,4.21,0,1,1-4.21-4.21A4.2,4.2,0,0,1,1048.35,1363.85Zm21.65,0a4.21,4.21,0,1,1-4.21-4.21A4.2,4.2,0,0,1,1070,1363.85Zm-86.586,21.65a4.211,4.211,0,1,1-4.211-4.21A4.207,4.207,0,0,1,983.414,1385.5Zm21.646,0a4.21,4.21,0,1,1-4.21-4.21A4.2,4.2,0,0,1,1005.06,1385.5Zm21.65,0a4.21,4.21,0,1,1-4.21-4.21A4.21,4.21,0,0,1,1026.71,1385.5Zm21.64,0a4.21,4.21,0,1,1-4.21-4.21A4.2,4.2,0,0,1,1048.35,1385.5Zm21.65,0a4.21,4.21,0,1,1-4.21-4.21A4.2,4.2,0,0,1,1070,1385.5Zm-86.586,21.65a4.211,4.211,0,1,1-4.211-4.21A4.214,4.214,0,0,1,983.414,1407.15Zm21.646,0a4.21,4.21,0,1,1-4.21-4.21A4.21,4.21,0,0,1,1005.06,1407.15Zm21.65,0a4.21,4.21,0,1,1-4.21-4.21A4.217,4.217,0,0,1,1026.71,1407.15Zm21.64,0a4.21,4.21,0,1,1-4.21-4.21A4.21,4.21,0,0,1,1048.35,1407.15Zm21.65,0a4.21,4.21,0,1,1-4.21-4.21A4.21,4.21,0,0,1,1070,1407.15Zm-86.586,21.64a4.211,4.211,0,1,1-4.211-4.21A4.207,4.207,0,0,1,983.414,1428.79Zm21.646,0a4.21,4.21,0,1,1-4.21-4.21A4.2,4.2,0,0,1,1005.06,1428.79Zm21.65,0a4.21,4.21,0,1,1-4.21-4.21A4.21,4.21,0,0,1,1026.71,1428.79Zm21.64,0a4.21,4.21,0,1,1-4.21-4.21A4.2,4.2,0,0,1,1048.35,1428.79Zm21.65,0a4.21,4.21,0,1,1-4.21-4.21A4.2,4.2,0,0,1,1070,1428.79Z" transform="translate(-975 -1338)"/>
</svg>
