<svg xmlns="http://www.w3.org/2000/svg" width="264" height="364" viewBox="0 0 264 364">
  <path class="fill-primary" d="M1690.39,1493.54c-8.29,43.35,18.19,74.73,25.25,113.55,7.07,38.67-5.35,84.7-34.63,102.37-29.36,17.74-75.59,7.12-101.15-24.88-25.5-31.91-30.36-85.07-43.36-111.02-12.94-26.01-34.04-24.66-47.15-32.84-13.08-8.31-18.18-26-18.34-45.37-0.18-19.22,4.44-39.99,13.42-67.61,8.92-27.7,22.08-62.27,43.94-71.14s52.27,7.93,96.38,9.36,101.9-12.53,109.38,8.13C1741.53,1394.8,1698.61,1450.12,1690.39,1493.54Z" transform="translate(-1471 -1354)"/>
</svg>
