<svg xmlns="http://www.w3.org/2000/svg" width="312.82" height="382.13" viewBox="0 0 312.82 382.13">
  <path class="fill-primary" d="M1769.13,2020.59c15,11.59,16.99,55.69,45.6,80.65,28.71,24.91,62.63,40.09,73.23,56.82,10.7,16.69-2.04,34.99-21.79,72.9-19.79,37.8-24.94,85.82-54.97,131.85-29.99,46.14-93,42.48-124.82,23.04-31.76-19.59-21.69-59.65-39.54-112.92-18-53.33-55.85-72.17-64.55-101.78-8.81-29.57.89-65.24,23.22-86.22,22.28-20.83,57.26-27.13,88.81-40.89C1725.93,2030.38,1754.07,2009.15,1769.13,2020.59Z" transform="translate(-1579.06 -2017.34)"/>
</svg>
