<svg xmlns="http://www.w3.org/2000/svg" width="30" height="30" viewBox="0 0 30 30">
  <path class="cfill-primary" d="M1003.75,1214.17a1.25,1.25,0,0,0-1.25,1.25v6.07h-25v-6.07a1.249,1.249,0,1,0-2.5,0v7.32a1.251,1.251,0,0,0,1.249,1.26h27.5a1.253,1.253,0,0,0,1.25-1.26v-7.32A1.25,1.25,0,0,0,1003.75,1214.17Zm-14.669,1.49a1.254,1.254,0,0,0,1.831,0l7.182-7.78a1.263,1.263,0,0,0-.068-1.78,1.242,1.242,0,0,0-1.763.07l-5.014,5.43v-16.34a1.249,1.249,0,1,0-2.5,0v16.34l-5.014-5.43a1.25,1.25,0,0,0-1.77-.06,1.269,1.269,0,0,0-.067,1.78l7.181,7.77h0Z" transform="translate(-975 -1194)"/>
</svg>
