<?xml version="1.0" encoding="utf-8"?>
<!-- Generator: Adobe Illustrator 23.0.0, SVG Export Plug-In . SVG Version: 6.00 Build 0)  -->
<svg version="1.1" id="Layer_1" xmlns="http://www.w3.org/2000/svg" xmlns:xlink="http://www.w3.org/1999/xlink" width="60px" height="55px" x="0px" y="0px"
	 viewBox="0 0 60 55" style="enable-background:new 0 0 60 55;" xml:space="preserve">
	<g>
		<g>
			<linearGradient id="Gradient" gradientUnits="userSpaceOnUse" x1="0" y1="27.5" x2="60" y2="27.5">
				<stop  offset="0" class="fill-gradient-1"/>
				<stop  offset="1" class="fill-gradient-2"/>
			</linearGradient>
			<path class="fill-gradient" d="M59.7,52.1L47.1,31.5c-0.3-0.6-0.9-0.9-1.6-0.9c-0.7,0-1.3,0.3-1.6,0.9l-1.6,2.7c-0.3,0.4-0.1,1,0.3,1.2
				c0.4,0.3,1,0.1,1.2-0.3l1.6-2.7c0,0,0-0.1,0.1-0.1c0.1,0,0.1,0,0.1,0.1L58.2,53c0,0,0,0.1,0,0.1c0,0.1-0.1,0.1-0.1,0.1h-7
				L31.6,21.3c-0.2-0.3-0.4-0.5-0.7-0.7c0,0,0,0,0,0v-6c0.7,0.2,1.4,0.3,2.1,0.3c2,0,3.9-0.7,5.7-1.4c2.5-1,5-1.9,7.6-0.8
				c0.3,0.1,0.7,0.1,1-0.1c0.3-0.2,0.5-0.5,0.5-0.9v-10c0-0.4-0.3-0.8-0.7-1c-3.3-1.4-6.2-0.3-9,0.7c-2.6,1-5.1,1.9-7.8,0.7
				C30.1,2,29.8,2,29.5,2.1c-0.3,0.2-0.4,0.4-0.4,0.7v0c0,0.1,0,0.1,0,0.2v17.5c-0.3,0.2-0.5,0.4-0.7,0.7l-9.3,15.2l-3-5
				c-0.3-0.6-0.9-0.9-1.6-0.9c-0.7,0-1.3,0.3-1.6,0.9L0.3,52.1c-0.4,0.6-0.4,1.3,0,1.9c0.3,0.6,1,1,1.6,1h56.2c0.7,0,1.3-0.4,1.6-1
				C60.1,53.4,60.1,52.7,59.7,52.1z M30.9,4.1C33.7,4.9,36.3,4,38.8,3c2.5-0.9,4.8-1.8,7.3-0.9v8.6c-2.9-0.8-5.4,0.2-7.9,1.1
				c-2.5,0.9-4.8,1.8-7.3,0.9V4.1z M10.9,53.2l3-4.9c0.3-0.4,0.1-1-0.3-1.2c-0.4-0.3-1-0.1-1.2,0.3l-3.6,5.9h-7c0,0-0.1,0-0.1-0.1
				s0-0.1,0-0.1l12.6-20.6c0,0,0-0.1,0.1-0.1c0.1,0,0.1,0,0.1,0.1l3.5,5.7l-3.5,5.7c-0.3,0.4-0.1,1,0.3,1.2c0.4,0.3,1,0.1,1.2-0.3
				l13.8-22.6c0,0,0-0.1,0.1-0.1c0.1,0,0.1,0,0.1,0.1l19,31H10.9z"/>
		</g>
	</g>
</svg>
