<?xml version="1.0" encoding="utf-8"?>
<!-- Generator: Adobe Illustrator 23.0.0, SVG Export Plug-In . SVG Version: 6.00 Build 0)  -->
<svg version="1.1" id="Layer_1" xmlns="http://www.w3.org/2000/svg" xmlns:xlink="http://www.w3.org/1999/xlink" width="60px" height="55px" x="0px" y="0px" viewBox="0 0 60 55" style="enable-background:new 0 0 60 55;" xml:space="preserve">
<linearGradient id="Gradient" gradientUnits="userSpaceOnUse" x1="4.505755e-04" y1="27.5" x2="60" y2="27.5">
	<stop  offset="0" class="fill-gradient-1"/>
	<stop  offset="1" class="fill-gradient-2"/>
</linearGradient>
<path class="fill-gradient" d="M59.6,44.1c-0.6-0.6-9.8-9.5-16.1-15.6c-0.2-1-0.2-1.1-0.2-1.3c0-0.5,0.2-1,0.6-1.3l7.2-6.8c2.1-2,1-5.6-2-6.1
	l-9.9-1.4c-0.6-0.1-1.1-0.5-1.4-1L33.3,2c-1.3-2.6-5.2-2.6-6.6,0l-4.4,8.7c-0.3,0.5-0.8,0.9-1.4,1l-5.6,0.8c-0.5,0.1-0.8,0.5-0.7,1
	c0.1,0.5,0.5,0.8,1,0.7l5.6-0.8c1.2-0.2,2.2-0.9,2.8-1.9l4.4-8.7c0.7-1.4,2.7-1.4,3.4,0l4.4,8.7c0.5,1,1.6,1.8,2.8,1.9l9.9,1.4
	c1.5,0.2,2.2,2.1,1,3.1l-7.2,6.8c-0.8,0.8-1.3,2-1.1,3.1c1.8,10.4,1.7,9.7,1.7,9.9c0,1-0.9,1.8-1.9,1.8c-0.5,0-0.9,0.4-0.9,0.9
	c0,2,5.1,0.4,4.5-3.3l-1-5.7c1.4,1.3,11.7,11.4,14.1,13.7c-0.2,0.2,0.2,0.1-5.4,1.1c-0.9,0.2-1.7,0.9-1.8,1.8
	c-1,5.5-0.9,5.1-1.1,5.2C48.1,51.5,35.3,39.1,34.2,38l3.6,1.8c0.4,0.2,1,0.1,1.2-0.4c0.2-0.4,0.1-0.9-0.4-1.2
	c-7.4-3.8-7.6-4.1-9.1-3.9c-0.9,0.1-0.4,0-10.1,4.9c-1.3,0.7-2.8-0.3-2.8-1.6c0-0.2-0.1,0.4,1.7-9.9c0.2-1.2-0.2-2.4-1.1-3.1
	l-7.2-6.8c-1.1-1.1-0.5-2.9,1-3.1l0.8-0.1c0.5-0.1,0.8-0.5,0.7-1c-0.1-0.5-0.5-0.8-1-0.7L11,13.1c-3,0.4-4.2,4-2,6.1l7.2,6.8
	c0.8,0.8,0.5,1.6,0.4,2.6C15,30,0.4,44.1,0.4,44.1c-0.9,0.9,0,2.6,1.4,2.9l5.2,0.9c0.1,0,0.4,0.3,0.4,0.4l1,5c0.3,1.3,2,2.2,2.9,1.3
	C12,53.8,28.6,37.7,30,36.4c2.1,2.1,17.8,17.2,18.8,18.3c0.9,0.9,2.7,0,2.9-1.3l1-5c0-0.1,0.3-0.4,0.4-0.4l5.2-0.9
	C59.6,46.7,60.6,45,59.6,44.1z M10.2,53.2C9.9,53.1,10.1,53.5,9,48c-0.2-0.8-1-1.6-1.8-1.8c-5.6-1-5.2-0.9-5.4-1.1
	c1.7-1.6,6.2-6,14.1-13.7c-1.1,6.2-1.1,5.9-1.1,6.3c0,1.9,1.6,3.5,3.7,3.5c1.2,0,1.2-0.2,7.3-3.2C19.6,44,11.8,51.7,10.2,53.2z"/>
</svg>
