<?xml version="1.0" encoding="utf-8"?>
<!-- Generator: Adobe Illustrator 23.0.0, SVG Export Plug-In . SVG Version: 6.00 Build 0)  -->
<svg version="1.1" id="Layer_1" xmlns="http://www.w3.org/2000/svg" xmlns:xlink="http://www.w3.org/1999/xlink" width="60px" height="55px" x="0px" y="0px"
	 viewBox="0 0 60 55" style="enable-background:new 0 0 60 55;" xml:space="preserve">
	<g>
		<linearGradient id="Gradient" gradientUnits="userSpaceOnUse" x1="4.0673" y1="37.05" x2="56.8908" y2="37.05">
			<stop  offset="0" class="fill-gradient-1"/>
			<stop  offset="1" class="fill-gradient-2"/>
		</linearGradient>
		<path class="fill-gradient" d="M56.7,30.4l-5-9.8c-0.4-0.9-1.3-1.4-2.2-1.4c-1.7,0-36.6,0-38.3,0c-0.9,0-1.8,0.5-2.2,1.4l-5,9.8
			c-0.3,0.5-0.3,1.1,0,1.6s0.8,0.7,1.3,0.7h4.1v19.7c0,1.4,1.1,2.5,2.4,2.5c0.5,0,36.7,0,37.2,0c1.3,0,2.4-1.1,2.4-2.5V44
			c0-0.4-0.4-0.8-0.8-0.8c-0.4,0-0.8,0.4-0.8,0.8v8.5c0,0.5-0.3,0.9-0.7,0.9h-18V23.3l4.2,8.3c0.4,0.7,1.1,1.2,1.8,1.2h12.5v7.5
			c0,0.4,0.4,0.8,0.8,0.8c0.4,0,0.8-0.4,0.8-0.8v-7.5h4.1c0.5,0,1-0.3,1.3-0.7C56.9,31.5,56.9,30.9,56.7,30.4z M5.4,31.1l5-9.8
			c0.2-0.3,0.5-0.6,0.8-0.6H29c-0.6,1.2-4.3,8.5-5.1,10.1c-0.1,0.2-0.2,0.3-0.4,0.3C23,31.1,5.9,31.1,5.4,31.1z M29.5,53.4H11.7
			c-0.4,0-0.7-0.4-0.7-0.9V32.7h12.5c0.8,0,1.5-0.5,1.8-1.2l4.2-8.3V53.4z M37.2,31.1c-0.2,0-0.3-0.1-0.4-0.3l-5.1-10.1h17.8
			c0.3,0,0.6,0.2,0.8,0.5l5,9.8C54.8,31.1,37.6,31.1,37.2,31.1z"/>
		<linearGradient id="Gradient" gradientUnits="userSpaceOnUse" x1="20.5085" y1="8.1456" x2="40.1191" y2="8.1456">
			<stop  offset="0" class="fill-gradient-1"/>
			<stop  offset="1" class="fill-gradient-2"/>
		</linearGradient>
		<path class="fill-gradient" d="M28,16.2c0.1,0.1,0.3,0.1,0.4,0.1c0.3,0,0.5-0.1,0.7-0.4c0.2-0.4,0.1-0.9-0.3-1.1c-2-1.2-6.7-4.5-6.7-9.5
			c0-2.2,2-4,4.2-3.7c2,0.3,2.7,1.8,2.8,2c0.7,0.7,1.7,0.7,2.4,0c0.2-0.2,1-2,3.3-2c2,0,3.7,1.7,3.7,3.7c0,4.7-4.2,8-6.7,9.5
			c-0.4,0.2-0.5,0.7-0.3,1.1c0.2,0.4,0.7,0.5,1.1,0.3c4.8-2.9,7.5-6.8,7.5-10.9c0-5.2-6.8-7.4-9.8-2.8c-1.8-2.9-5.8-3.4-8.3-0.9
			c-1,1-1.6,2.3-1.6,3.8C20.5,9.4,23.3,13.4,28,16.2z"/>
	</g>
</svg>
