<?xml version="1.0" encoding="utf-8"?>
<!-- Generator: Adobe Illustrator 23.0.0, SVG Export Plug-In . SVG Version: 6.00 Build 0)  -->
<svg version="1.1" id="Layer_1" xmlns="http://www.w3.org/2000/svg" xmlns:xlink="http://www.w3.org/1999/xlink" width="60px" height="55px" x="0px" y="0px" viewBox="0 0 60 55" style="enable-background:new 0 0 60 55;" xml:space="preserve">
	<g>
		<linearGradient id="Gradient" gradientUnits="userSpaceOnUse" x1="12.1845" y1="27.5091" x2="48.7789" y2="27.5091">
			<stop  offset="0" class="fill-gradient-1"/>
			<stop  offset="1" class="fill-gradient-2"/>
		</linearGradient>
		<path class="fill-gradient" d="M30.5,9.2c-10.1,0-18.3,8.2-18.3,18.3s8.2,18.3,18.3,18.3s18.3-8.2,18.3-18.3S40.6,9.2,30.5,9.2z M30.5,44
			C21.4,44,14,36.6,14,27.5S21.4,11,30.5,11s16.5,7.4,16.5,16.5S39.6,44,30.5,44z"/>
		<path class="st1" d="M37.8,25.7h-4.3l2.5-10.8c0.1-0.4-0.1-0.8-0.5-1c-0.4-0.2-0.8-0.1-1.1,0.2L22.5,27.8c-0.2,0.3-0.3,0.7-0.1,1
			c0.1,0.3,0.5,0.5,0.8,0.5h4.3L25,40.1c-0.1,0.4,0.1,0.8,0.5,1c0.1,0.1,0.3,0.1,0.4,0.1c0.3,0,0.5-0.1,0.7-0.3l11.9-13.7
			c0.2-0.3,0.3-0.7,0.1-1C38.5,25.9,38.2,25.7,37.8,25.7z M27.6,36.9l1.9-8.3c0.1-0.3,0-0.6-0.2-0.8c-0.2-0.2-0.4-0.3-0.7-0.3h-3.5
			l8.2-9.4l-1.9,8.3c-0.1,0.3,0,0.6,0.2,0.8c0.2,0.2,0.4,0.3,0.7,0.3h3.5L27.6,36.9z"/>
		<path class="st2" d="M30.5,47.6c-0.5,0-0.9,0.4-0.9,0.9V54c0,0.5,0.4,0.9,0.9,0.9s0.9-0.4,0.9-0.9v-5.5C31.4,48,31,47.6,30.5,47.6z
			"/>
		<path class="fill-gradient" d="M30.5,7.4c0.5,0,0.9-0.4,0.9-0.9V1c0-0.5-0.4-0.9-0.9-0.9S29.6,0.5,29.6,1v5.5C29.6,7,30,7.4,30.5,7.4z"/>
		<path class="fill-gradient" d="M9.4,26.6H4C3.4,26.6,3,27,3,27.5s0.4,0.9,0.9,0.9h5.5c0.5,0,0.9-0.4,0.9-0.9S9.9,26.6,9.4,26.6z"/>
		<path class="fill-gradient" d="M57,26.6h-5.5c-0.5,0-0.9,0.4-0.9,0.9s0.4,0.9,0.9,0.9H57c0.5,0,0.9-0.4,0.9-0.9S57.5,26.6,57,26.6z"/>
		<path class="fill-gradient" d="M46,41.7c-0.4-0.4-0.9-0.4-1.3,0s-0.4,0.9,0,1.3l3.9,3.9c0.2,0.2,0.4,0.3,0.6,0.3c0.2,0,0.5-0.1,0.6-0.3
			c0.4-0.4,0.4-0.9,0-1.3L46,41.7z"/>
		<path class="fill-gradient" d="M15,13.3c0.2,0.2,0.4,0.3,0.6,0.3c0.2,0,0.5-0.1,0.6-0.3c0.4-0.4,0.4-0.9,0-1.3l-3.9-3.9
			c-0.4-0.4-0.9-0.4-1.3,0c-0.4,0.4-0.4,0.9,0,1.3L15,13.3z"/>
		<path class="fill-gradient" d="M15,41.7l-3.9,3.9c-0.4,0.4-0.4,0.9,0,1.3c0.2,0.2,0.4,0.3,0.6,0.3s0.5-0.1,0.6-0.3l3.9-3.9
			c0.4-0.4,0.4-0.9,0-1.3C15.9,41.4,15.3,41.4,15,41.7z"/>
		<path class="fill-gradient" d="M48.6,8.1L44.7,12c-0.4,0.4-0.4,0.9,0,1.3c0.2,0.2,0.4,0.3,0.6,0.3s0.5-0.1,0.6-0.3l3.9-3.9
			c0.4-0.4,0.4-0.9,0-1.3C49.5,7.7,49,7.7,48.6,8.1z"/>
	</g>
</svg>
