<?xml version="1.0" encoding="utf-8"?>
<!-- Generator: Adobe Illustrator 23.0.0, SVG Export Plug-In . SVG Version: 6.00 Build 0)  -->
<svg version="1.1" id="Layer_1" xmlns="http://www.w3.org/2000/svg" xmlns:xlink="http://www.w3.org/1999/xlink" width="110px" height="110px" x="0px" y="0px"
	 viewBox="0 0 110 110" style="enable-background:new 0 0 110 110;" xml:space="preserve">
<style type="text/css">
	.st0{fill:url(#SVGID_1_);}
	.st1{fill:url(#SVGID_2_);}
	.st2{fill:url(#SVGID_3_);}
	.st3{fill:url(#SVGID_4_);}
</style>
<g>
	
		<linearGradient id="SVGID_1_" gradientUnits="userSpaceOnUse" x1="0" y1="33.4515" x2="110" y2="33.4515" gradientTransform="matrix(1 0 0 -1 0 111)">
		<stop  offset="0" style="stop-color:#FD4632"/>
		<stop  offset="1" style="stop-color:#FA3A72"/>
	</linearGradient>
	<path class="st0" d="M108.9,76.7c3.3-10.4-1.3-22-10.1-26c-1.3-0.6-2.6-1-4-1.2v-1.6c0-1.6-1.1-2.8-2.4-2.8H12.7
		c-1.3,0-2.4,1.2-2.4,2.8v12c0,13.2,4.4,26,12.3,35.3c3.5,4.2,7.7,7.6,12.3,10H2c-1.1,0-2,1-2,2.2s0.9,2.6,2,2.6h101.2
		c1.1,0,2-1,2-2.2s-0.9-2.2-2-2.2h-33C77,102,82.9,96.2,87.1,89l0,0C95.9,92.6,105.8,87.2,108.9,76.7z M94.8,59.9v-5.6
		c7.2,1.4,12.1,9.4,11,18s-7.9,14.2-15.2,13c-0.2,0-0.4,0-0.7-0.2L89.1,85C93,77.1,94.8,68.7,94.8,59.9z M52.6,105.4L52.6,105.4
		L52.6,105.4c-21.3,0-38.5-20.4-38.5-45.5V49.5h77v10.4C91,85,73.7,105.2,52.6,105.4z"/>
	
		<linearGradient id="SVGID_2_" gradientUnits="userSpaceOnUse" x1="31.2049" y1="93.8031" x2="39.0495" y2="93.8031" gradientTransform="matrix(1 0 0 -1 0 111)">
		<stop  offset="0" style="stop-color:#FD4632"/>
		<stop  offset="1" style="stop-color:#FA3A72"/>
	</linearGradient>
	<path class="st1" d="M33.6,30.7c-0.6,1-0.4,2.4,0.6,3.2s2,0.4,2.8-0.6c0,0,5.3-8.8,0-17.4c-3.7-6,0-12.2,0-12.2
		c0.6-1,0.4-2.4-0.6-3.2c-0.9-0.6-2-0.4-2.6,0.6c0,0-5.3,8.8,0,17.4C37.2,24.5,33.6,30.7,33.6,30.7z"/>
	
		<linearGradient id="SVGID_3_" gradientUnits="userSpaceOnUse" x1="65.9441" y1="93.8472" x2="73.7875" y2="93.8472" gradientTransform="matrix(1 0 0 -1 0 111)">
		<stop  offset="0" style="stop-color:#FD4632"/>
		<stop  offset="1" style="stop-color:#FA3A72"/>
	</linearGradient>
	<path class="st2" d="M68.2,30.7c-0.6,1-0.4,2.4,0.6,3.2c0.9,0.8,2,0.4,2.8-0.6c0,0,5.3-8.8,0-17.4c-3.7-6,0-12.2,0-12.2
		c0.6-1,0.4-2.4-0.6-3.2C70.1-0.4,69,0,68.2,1l0,0c0,0-5.3,8.8,0,17.4C71.9,24.5,68.2,30.7,68.2,30.7z"/>
	
		<linearGradient id="SVGID_4_" gradientUnits="userSpaceOnUse" x1="48.5746" y1="93.8031" x2="56.4192" y2="93.8031" gradientTransform="matrix(1 0 0 -1 0 111)">
		<stop  offset="0" style="stop-color:#FD4632"/>
		<stop  offset="1" style="stop-color:#FA3A72"/>
	</linearGradient>
	<path class="st3" d="M51,30.7c-0.6,1-0.4,2.4,0.6,3.2s2,0.4,2.8-0.6c0,0,5.3-8.8,0-17.4c-3.7-6,0-12.2,0-12.2
		c0.6-1,0.4-2.4-0.6-3.2c-0.9-0.6-2-0.4-2.6,0.6c0,0-5.3,8.8,0,17.4C54.6,24.5,51,30.7,51,30.7z"/>
</g>
</svg>
