<?xml version="1.0" encoding="utf-8"?>
<!-- Generator: Adobe Illustrator 23.0.0, SVG Export Plug-In . SVG Version: 6.00 Build 0)  -->
<svg version="1.1" id="Layer_1" xmlns="http://www.w3.org/2000/svg" xmlns:xlink="http://www.w3.org/1999/xlink" width="110px" height="110px" x="0px" y="0px"
	 viewBox="0 0 110 110" style="enable-background:new 0 0 110 110;" xml:space="preserve">
<style type="text/css">
	.st0{fill:url(#SVGID_1_);}
	.st1{fill:url(#SVGID_2_);}
	.st2{fill:url(#SVGID_3_);}
	.st3{fill:url(#SVGID_4_);}
	.st4{fill:url(#SVGID_5_);}
	.st5{fill:url(#SVGID_6_);}
	.st6{fill:url(#SVGID_7_);}
	.st7{fill:url(#SVGID_8_);}
</style>
<g>
	<linearGradient id="SVGID_1_" gradientUnits="userSpaceOnUse" x1="0" y1="73.6914" x2="76.4844" y2="73.6914">
		<stop  offset="0" style="stop-color:#FD4632"/>
		<stop  offset="1" style="stop-color:#FA3A72"/>
	</linearGradient>
	<path class="st0" d="M74.3,68.5c-1.2,0-2.1,1-2.1,2.1v14.8c0,5.9-4.8,10.7-10.7,10.7H38.2c-1.2,0-2.1,1-2.1,2.1l0,4.3L31,97.5
		c-0.3-0.8-1.1-1.3-2-1.3H15c-5.9,0-10.7-4.8-10.7-10.7V52.4c0-5.9,4.8-10.7,10.7-10.7h21.7c1.2,0,2.1-1,2.1-2.1s-1-2.1-2.1-2.1H15
		c-8.3,0-15,6.7-15,15v33.1c0,8.3,6.7,15,15,15h12.9l8.8,8.8c0.4,0.4,1,0.6,1.5,0.6c0.3,0,0.6-0.1,0.8-0.2c0.8-0.3,1.3-1.1,1.3-2
		l0-7.3h21c8.3,0,15-6.7,15-15V70.7C76.5,69.5,75.5,68.5,74.3,68.5z"/>
	<linearGradient id="SVGID_2_" gradientUnits="userSpaceOnUse" x1="42.1094" y1="35.0469" x2="110" y2="35.0469">
		<stop  offset="0" style="stop-color:#FD4632"/>
		<stop  offset="1" style="stop-color:#FA3A72"/>
	</linearGradient>
	<path class="st1" d="M78.8,0h-5.4C56.1,0,42.1,14,42.1,31.2s14,31.2,31.2,31.2h5.4c2.7,0,5.3-0.3,7.9-1l8,8c0.4,0.4,1,0.6,1.5,0.6
		c0.3,0,0.6-0.1,0.8-0.2c0.8-0.3,1.3-1.1,1.3-2V55.5c3.4-2.8,6.2-6.2,8.2-10.1c2.3-4.4,3.4-9.2,3.4-14.2C110,14,96,0,78.8,0z
		 M95,52.8c-0.5,0.4-0.9,1-0.9,1.7v8.3l-5.3-5.3c-0.4-0.4-1-0.6-1.5-0.6c-0.2,0-0.4,0-0.6,0.1c-2.6,0.8-5.2,1.2-7.9,1.2h-5.4
		c-14.8,0-26.9-12.1-26.9-26.9c0-14.8,12.1-26.9,26.9-26.9h5.4c14.8,0,26.9,12.1,26.9,26.9C105.7,39.8,101.8,47.6,95,52.8z"/>
	<linearGradient id="SVGID_3_" gradientUnits="userSpaceOnUse" x1="67.5602" y1="27.5899" x2="85.7521" y2="27.5899">
		<stop  offset="0" style="stop-color:#FD4632"/>
		<stop  offset="1" style="stop-color:#FA3A72"/>
	</linearGradient>
	<path class="st2" d="M77.3,15.1c-2.5-0.2-5,0.7-6.8,2.4c-1.8,1.7-2.9,4.1-2.9,6.7c0,1.2,1,2.1,2.1,2.1c1.2,0,2.1-1,2.1-2.1
		c0-1.3,0.5-2.6,1.5-3.5c1-0.9,2.3-1.4,3.6-1.3c2.4,0.2,4.3,2.1,4.4,4.4c0.2,2.4-1.4,4.5-3.7,5c-1.9,0.4-3.2,2.1-3.2,4V38
		c0,1.2,1,2.1,2.1,2.1c1.2,0,2.1-1,2.1-2.1v-5c4.3-1,7.2-5,6.9-9.5C85.4,19,81.8,15.4,77.3,15.1z"/>
	<linearGradient id="SVGID_4_" gradientUnits="userSpaceOnUse" x1="74.5078" y1="46.4772" x2="78.8047" y2="46.4772">
		<stop  offset="0" style="stop-color:#FD4632"/>
		<stop  offset="1" style="stop-color:#FA3A72"/>
	</linearGradient>
	<path class="st3" d="M76.7,44.3c-0.6,0-1.1,0.2-1.5,0.6c-0.4,0.4-0.6,1-0.6,1.5c0,0.6,0.2,1.1,0.6,1.5c0.4,0.4,1,0.6,1.5,0.6
		s1.1-0.2,1.5-0.6c0.4-0.4,0.6-1,0.6-1.5c0-0.6-0.2-1.1-0.6-1.5C77.8,44.6,77.2,44.3,76.7,44.3z"/>
	<linearGradient id="SVGID_5_" gradientUnits="userSpaceOnUse" x1="56.9336" y1="80.7813" x2="61.2305" y2="80.7813">
		<stop  offset="0" style="stop-color:#FD4632"/>
		<stop  offset="1" style="stop-color:#FA3A72"/>
	</linearGradient>
	<path class="st4" d="M59.1,78.6c-0.6,0-1.1,0.2-1.5,0.6c-0.4,0.4-0.6,1-0.6,1.5s0.2,1.1,0.6,1.5c0.4,0.4,1,0.6,1.5,0.6
		s1.1-0.2,1.5-0.6c0.4-0.4,0.6-1,0.6-1.5c0-0.6-0.2-1.1-0.6-1.5C60.2,78.9,59.6,78.6,59.1,78.6z"/>
	<linearGradient id="SVGID_6_" gradientUnits="userSpaceOnUse" x1="11.6016" y1="68.75" x2="61.2305" y2="68.75">
		<stop  offset="0" style="stop-color:#FD4632"/>
		<stop  offset="1" style="stop-color:#FA3A72"/>
	</linearGradient>
	<path class="st5" d="M59.1,66.6H13.8c-1.2,0-2.1,1-2.1,2.1s1,2.1,2.1,2.1h45.3c1.2,0,2.1-1,2.1-2.1S60.3,66.6,59.1,66.6z"/>
	<linearGradient id="SVGID_7_" gradientUnits="userSpaceOnUse" x1="11.6016" y1="80.7813" x2="52.78" y2="80.7813">
		<stop  offset="0" style="stop-color:#FD4632"/>
		<stop  offset="1" style="stop-color:#FA3A72"/>
	</linearGradient>
	<path class="st6" d="M13.8,78.6c-1.2,0-2.1,1-2.1,2.1s1,2.1,2.1,2.1h36.9c1.2,0,2.1-1,2.1-2.1s-1-2.1-2.1-2.1H13.8z"/>
	<linearGradient id="SVGID_8_" gradientUnits="userSpaceOnUse" x1="11.6016" y1="56.7188" x2="47.2656" y2="56.7188">
		<stop  offset="0" style="stop-color:#FD4632"/>
		<stop  offset="1" style="stop-color:#FA3A72"/>
	</linearGradient>
	<path class="st7" d="M45.1,54.6H13.8c-1.2,0-2.1,1-2.1,2.1s1,2.1,2.1,2.1h31.4c1.2,0,2.1-1,2.1-2.1S46.3,54.6,45.1,54.6z"/>
</g>
</svg>
