<?xml version="1.0" encoding="utf-8"?>
<!-- Generator: Adobe Illustrator 23.0.0, SVG Export Plug-In . SVG Version: 6.00 Build 0)  -->
<svg version="1.1" id="Layer_1" xmlns="http://www.w3.org/2000/svg" xmlns:xlink="http://www.w3.org/1999/xlink" width="110px" height="110px" x="0px" y="0px"
	 viewBox="0 0 110 110" style="enable-background:new 0 0 110 110;" xml:space="preserve">
<style type="text/css">
	.st0{fill:url(#SVGID_1_);}
	.st1{fill:url(#SVGID_2_);}
</style>
<g>
	<linearGradient id="SVGID_1_" gradientUnits="userSpaceOnUse" x1="17.538" y1="42.7775" x2="110" y2="42.7775">
		<stop  offset="0" style="stop-color:#FD4632"/>
		<stop  offset="1" style="stop-color:#FA3A72"/>
	</linearGradient>
	<path class="st0" d="M109,0.5c-1.1-0.8-2.7-0.6-3.5,0.5L45,79.4L21.8,56.6c-1-1-2.6-0.9-3.5,0c-0.9,1-0.9,2.4,0,3.4l25.2,24.8
		c0.5,0.5,1.1,0.7,1.8,0.7h0.2c0.7,0,1.4-0.4,1.8-1l62.3-80.7C110.3,2.8,110.1,1.3,109,0.5z"/>
	<linearGradient id="SVGID_2_" gradientUnits="userSpaceOnUse" x1="0" y1="59.8877" x2="100.0024" y2="59.8877">
		<stop  offset="0" style="stop-color:#FD4632"/>
		<stop  offset="1" style="stop-color:#FA3A72"/>
	</linearGradient>
	<path class="st1" d="M97.5,48.9c-1.4,0-2.5,1.1-2.5,2.4v53.8H5V14.7h64.9c1.2,0,2.4-0.9,2.6-2.1c0.2-1.5-1-2.8-2.5-2.8H2.5
		C1.1,9.8,0,10.9,0,12.2v95.3c0,1.3,1.1,2.4,2.5,2.4h95c1.4,0,2.5-1.1,2.5-2.4V51.3C100,50,98.9,48.9,97.5,48.9z"/>
</g>
</svg>
