<svg xmlns="http://www.w3.org/2000/svg" width="387.03" height="49.031" viewBox="0 0 387.03 49.031">
  <defs>
    <style>
      .cls-1 {
        fill: #fc4341;
        fill-rule: evenodd;
      }
    </style>
  </defs>
  <path class="cls-1" d="M1486.4,400.918c0.43,0.921,2.14.134,2.22,1.478h0.85c-0.97,1.038-2.53-.168-3.58.152C1486.16,402.094,1486.05,401.3,1486.4,400.918Zm8.37,2.8a0.5,0.5,0,0,0,.55-0.286c0.39-.065-0.12.674,0.51,0.437a3.542,3.542,0,0,1-2.92-.3C1492.98,402.967,1494.93,402.916,1494.77,403.72Zm-11.76.588c0.46-.788,2.14.3,2.22-0.739,0.58,0.133,0,.371.16,0.89a6.424,6.424,0,0,0,1.36-.89c0.7,0.557,2.18.388,3.08,0.739-0.28,1.828,2.84.2,2.92,1.914-0.59-.1-1.29-0.069-1.36-0.588-2.3.6-3.75-.773-4.99-1.024C1485.43,404.394,1484.14,405.064,1483.01,404.308Zm26.14,10.456c-0.27.42-1.32,0.237-.86,0.891-0.42-.169-1.16-0.5-0.5-0.74-0.94.32-2.61,0.757-3.27,0-0.08-.116.85-0.57-0.16-0.436C1505.33,412.953,1508.33,414.311,1509.15,414.764Zm4.25-.436a0.644,0.644,0,0,1,.54.587c-0.54.1-.5-0.251-1.05-0.151C1512.93,414.479,1513.48,414.664,1513.4,414.328Zm-2.38.151a4.862,4.862,0,0,1,1.71.134C1512.19,415,1511.29,415.218,1511.02,414.479Zm10.76,0.285c0.11,0.588-.94.168-1.37,0.3C1520.34,414.479,1521.34,414.881,1521.78,414.764Zm-13.13.891h0.85C1509.54,416.16,1508.49,416.277,1508.65,415.655Zm2.02,1.914c-0.43.4-2.22,0.519-2.22-.3A4.336,4.336,0,0,1,1510.67,417.569Zm2.06,0.437c-0.73,0-1.59.082-1.86-.3C1511.14,417.25,1512.85,417.232,1512.73,418.006Zm1.37-.437h0.86c-0.2.3-.7,0.7-1.02,0.437A0.721,0.721,0,0,0,1514.1,417.569Zm2.38,2.5c0.23,0.822-.78.605-1.17,0.873C1514.45,420.254,1515.46,419.749,1516.48,420.068Zm3.07,0c-0.31.454-.19,0.388-0.5,0.873a3.3,3.3,0,0,1-1.21-.151v-0.57A7.956,7.956,0,0,1,1519.55,420.068Zm-2.37.152c0.82-.018,0,0.972-0.35.436C1516.94,420.505,1517.22,420.505,1517.18,420.22Zm3.93,0c0.71-.117.86,0.219,1.52,0.133,0.12,0.973-1.48.471-2.37,0.588C1519.9,420.656,1521.85,420.941,1521.11,420.22Zm2.89,0c-0.12.419-.63,0.989-1.02,0.721A1.375,1.375,0,0,1,1524,420.22Zm-35.89.133c0.32,0.086.66,0.942-.16,0.739C1488.27,420.841,1487.76,420.673,1488.11,420.353Zm25.64,0.3v0.436c-0.47.083-.7-0.133-1.72,0C1512.15,420.539,1513.32,420.907,1513.75,420.656Zm-0.51,1.024c-1.17.891-3.66-.336-4.59,0.3-0.32-.839,1.36-0.942,1.36-0.3A15.849,15.849,0,0,1,1513.24,421.68Zm-32.1.3c0.08-.32,1.01-0.151,1.17,0C1482.15,422.536,1481.41,422.134,1481.14,421.983Zm24.58,2.062a33.318,33.318,0,0,1-3.93-.45c-0.2-.185-0.04-0.22,0-0.437A5.068,5.068,0,0,1,1505.72,424.045Zm-6.66.134c0.98,0.2,2.06.2,1.87,1.042-0.82.086-.89-0.5-1.87-0.3A0.8,0.8,0,0,0,1499.06,424.179Zm-66.98,5.741c-0.03.471-.85,0.254-1.36,0.3C1430.6,429.635,1431.66,430.054,1432.08,429.92Zm4.29-34.725c0.43,0.268.39,1.141,1.01,1.612,0.24-.051,1.8-0.086,1.52-1.024,1.44,0.5,2.65-.588,3.59-0.454,0.15,0.488-.55.216-0.66,0.454,0.85,0.77,3.77-.571,3.42,1.461a7.824,7.824,0,0,0,1.52.735c-0.35-.687.04-1.124,0.86-1.457,0.78-.052-0.59.973,0.35,1.172,0.23-.1-0.15-0.45.31-0.6a1.75,1.75,0,0,1,1.4.3c2.42-.722,6.35,1.828,8.54.433,0.46,0.151.93,0.976,0.35,1.176,0.86,0.453,2.73-.234,4.44-0.286a2.1,2.1,0,0,1,.35.739,2,2,0,0,0,.66-0.89,1.563,1.563,0,0,1,1.37.89c1.01-.251,2.29-0.285,2.73-1.024,0.38,0.3-.08.4,0,0.873a2.846,2.846,0,0,0,.85-0.151c0.31,0.285.04,0.371,0,.739,0.55,0.069.39-.454,1.05-0.285,2.19,1.443,5.69-1.124,6.63,1.763-1.09.034-2.69,0.722-4.09,0.437,0.54,0.67,2.14.4,2.57,1.189,0.62-.2.62-0.956,1.52-0.887,0.31,0.4.27,1.055,0.54,1.458a4.811,4.811,0,0,1,2.22-1.021c0.98,1.021,3.36.838,3.59,2.5,1.4-.1,2.18.385,3.39,0.436,0.03,0.506-.47.069-0.82,0.454,0.16,0.99-.43,1.292-0.7,1.915,0.47,0.316.7-.774,1.36-0.739a1.167,1.167,0,0,1,.16-1.327c1.24,0.367,2.22-.1,3.62.151,1.44,0.268,2.46,1.327,3.74.134a1.158,1.158,0,0,1,.86.739c3.74-.454,5.45.77,8.38,0.89a1.39,1.39,0,0,1,.66.736,1.332,1.332,0,0,1,1.71.437c0.47,0.051.16-.571,0.7-0.437,0.2,0.557,1.48.2,1.72,0.739-0.24.2-.78,0.134-0.51,0.739-1.28-.5-3.66-0.35-3.62-1.176-1.72,1.681-3.78.7-6.12,0.722,2.26,0.3,3.43,1.544,6.12,1.478-0.59.571,1.13,1.695,1.21,1.176,0.23,0.351-.47,1.158-0.51,1.76-0.47.32-1.72,0.169-1.21,0.89a4.681,4.681,0,0,0-1.52-.151,0.221,0.221,0,0,1-.19.3c1.01,1.245,3.74,1.008,4.79,2.2,0.54-.085,1.25-0.588,1.36.152-1.67.419-3.66-.774-4.95-0.437a5.232,5.232,0,0,0,1.37,1.176c2.1-.437,4.24.873,6.66,1.021,0.08,0.471-.58.388-0.15,0.739,0.77,0.151.42-.688,1.2-0.588,0.04,0.285.04,0.639,0.51,0.588,0.43-.251.54,0.22,0.31-0.437h1.05c0,0.437.51,0.739,0.16,1.024a16.2,16.2,0,0,0-4.25.3,1.165,1.165,0,0,0,.51-1.024,4.065,4.065,0,0,0-1.72.285c-0.46-.182-0.5-0.753-1.01-0.89-0.11.388-.23,0.522,0.16,0.739-1.13.134-2.26-.822-3.59-0.437,0.47,1.076,2.22,1.007,2.38,2.351,0.58,0.117.27-.536,0.7-0.588a3.582,3.582,0,0,1,1.36.588c-0.15.973-1.63,0.152-1.36,0.891-1.13-.657-3.08-0.2-4.79-0.152-0.47-.371.31-0.2,0.35-0.587-1.83.636-3.62-.506-4.95,0a9.063,9.063,0,0,0,2.73.739c0.04,0.385-.67.116-0.51,0.587a1.529,1.529,0,0,0-1.71-.151c-0.24-.722-1.41-0.674-1.91-0.285a2.628,2.628,0,0,1-.66-0.739c-1.25.519-3.24,0.553-4.09-.588a3.25,3.25,0,0,1-2.58.134c0.31-.268,1.02-0.722.86-1.309-1.09-.588-2.18.536-2.73-0.3-0.43.454,0.24,0.924,0.86,0.873-2.06,1.963-5.53-.117-8.22.3-0.63.1-1.01,0.74-1.87,0.437,1.13,1.107,3.51.368,4.24,1.193,0.51,0.048.2-.554,0.55-0.588,2.65-.034,3.9.334,6.31,0.437,0.31,0.3-.11.285,0.16,0.587,0.43-.133.39-0.656,1.05-0.587,0.27,0.636,1.37.065,1.68,0.89,1.98-.674,3.46.182,5.49,0.285,0.12,0.519.16,0.519,0.35,1.172a24.91,24.91,0,0,0-3.27-.436,1.586,1.586,0,0,0-.31.873c0.35,0.285,1.32.034,1.01,0.89,0.97-.268.7,0.571,1.52,0.454a15.266,15.266,0,0,1-5.81-.605c0.31-.32,1.33-0.017,1.72-0.285V425.07c-0.2-.169-1.05.371-1.52,0.436-0.04-.251.19-0.3,0.15-0.588a2.612,2.612,0,0,0-2.41.152c-0.78.051-.51-0.822-1.36-0.739-0.35.12-.04,0.825-0.16,1.175,1.09,0.839,2.1-.921,3.23.152,0.08,0.384-.66.116-0.5,0.587a62.668,62.668,0,0,0-9.04-.436,2,2,0,0,0-1.72.588,91.119,91.119,0,0,1,11.26.436c0,0.3.47,0.186,0.35,0.6,1.33-.89,3.43-0.32,4.8,0,1.05,0.216,3-.371,3.23.722-1.48,0-3.51.316-5.3-.151-0.04-.337.51-0.152,0.55-0.437-0.36-.051-0.55.035-0.55,0.3-2.02-.489-4.44.1-6.47,0-0.07-.286-0.78-0.018-0.54-0.588-0.35.436-1.05,0.251-1.68,0.151-0.19.605-1.17,0.856-.7,1.612-1.05.519-2.96,0.3-3.74,1.021-0.27.622,0.86,0.034,0.86,0.454,0.08,0.722-.94.22-1.4,0.134-1.95.907-4.29,0.605-6.67,1.041-0.35.069-.04,0.722-0.15,1.025-1.72-.4-4.41.453-6.31-0.437-0.94.805-4.06,1.073-4.64,0.151-1.72.554-4.72,0.891-6.66,0-2.15,1.259-5.65-.2-7.02-1.477,0.27-.32,1.21-0.471,1.4,0,0.55,0.034.47-.454,0.86-0.589-1.13.152-2.41-.587-3.43,0.286a1.186,1.186,0,0,0,0,.89c-1.91-.454-5.41.571-6.5-1.478-1.17.069-1.88-.285-2.57,0.3-0.94-1.006-3.08-.25-4.95-0.587a1.226,1.226,0,0,0-.36-0.736,2.946,2.946,0,0,0-2.53.87c-5.14-.688-10.75-1.09-15.89-1.609a17.262,17.262,0,0,1-3.94-.436c-2.69-.1-5.41.886-7.17-0.891-0.7.186-.78,0.908-1.71,0.891-1.33-.808-3.04-0.134-4.8-0.437a1.074,1.074,0,0,0-.15-0.89c-1.44.134-2.88,1.811-4.29,0.588-0.58-.086-0.42.518-1.01,0.436-1.75-1.578-5.38,1.042-6.51-1.175a4.211,4.211,0,0,1-3.73-.3c-0.44.688-1.1,0.017-1.37-.285-0.59-.035-0.43.519-0.7,0.739-2.42-.32-5.61.519-7.37-0.739a10.553,10.553,0,0,0-1.86.588,1.089,1.089,0,0,1-.67-0.891,1.453,1.453,0,0,1-2.06-.588c-0.39.052-.82,0.1-0.67,0.588-0.42.052-.19-0.419-0.54-0.436-0.43.117-.23,0.773-0.51,1.024-2.14-.185-6.54-1.292-8.37-0.436-2.93-.537-6.78.285-9.24-0.74a13.753,13.753,0,0,0-1.87.891c-2.92-.636-4.56-0.337-7.17-1.025-1.24.471-2.8,1.275-4.28,0.437-0.28.134-.12,0.673-0.51,0.739-2.61-.351-6.12.082-7.67-1.176-0.63-.117-0.39.554-0.86,0.571a21.893,21.893,0,0,0-5.14.151c-2.19-1.189-6.08,1.193-9.05-.722-1.55.471-3.19,1.025-4.28,0.134-0.51.152-1.68,1.141-2.22,0.3-1.13-.034-2.5.337-4.09,0.285-0.16,0-.55-0.3-0.66-0.285-1.02.052-2.34,0.553-3.63-.3-3.04.757-6.04-.553-9.04,0.152-1.63-.753-2.92-0.169-4.44-0.739-0.59.354-.94-0.049-1.21,0.587-1.32-.636-4.17.32-5.1-0.587-1.09,1.075-2.73-.014-3.94-0.152-1.55-.148-3.93.994-5.3-0.134-3.35.808-7.75-.9-11.1,0.286-3.08-1.644-7.21.622-10.6-.437-5.41.825-10.79,0.454-16.91,0.437-0.54-.066-0.47.4-0.85,0.453a13.69,13.69,0,0,0-4.95.437c-3.78-.856-7.33.419-10.8,0-0.23-.1,0-0.571-0.31-0.588-0.7.454-2.14,1.244-2.72,0.151a5.453,5.453,0,0,1-3.43.437c-0.74.907-2.42,0.168-3.78,0.739-2.03-.687-3.9.052-5.46,0.739-1.17-.086-3.27-0.151-3.77.437a3.485,3.485,0,0,0-2.54.3,21.066,21.066,0,0,0-4.63,0,24.852,24.852,0,0,0-2.54,0c-1.83.182-3.43,1.072-5.49,1.025-2.96-.087-5.46,1.275-8.38.587-1.29.537-3.82,1.173-4.95,0.134-3.7,1.527-7.71,1.056-12.11,1.341-0.63.069-.43-0.536-1.06-0.454-2.06.722-4.59-.048-6.47-0.436,0.36-1.19-.89-1.007-1.36-1.475-0.08-.89.74-2.485-0.7-2.5,0.12-1.6-2.18-2.2-3.08-3.39a0.867,0.867,0,0,0-.5-1.327c0.39-3.76-2.42-6.73-1.21-11.178-0.78-1.561,1.29-3.912-.51-4.868,1.17-.821.35-2.5,0.2-3.808a7.482,7.482,0,0,1,2.22-1.63c0.62-1.491,1.09-3.155,2.22-4.262,4.56-1.31,5.02-6.16,9.39-7.673,2.49-.2,3.86,1.863,6.15.891a21.076,21.076,0,0,0,8.69,1.175c1.29-.082,2.42-0.436,3.94-0.436,1.63,0,3.31-.6,5.49-0.739,3.66-.217,7.6-0.688,11.26-1.024,1.6-.152,3.2.1,4.29,0,2.34-.252,4.56-1.021,6.82-0.3,0.46-.182.89-0.385,1.36-0.585a2.059,2.059,0,0,1,1.21.286,1.951,1.951,0,0,0,1.01-.588c7.29-.051,15.27-0.773,21.86-1.461,3.43,0.337,6.35-.354,9.74-0.436,0.97,0.553,2.1-.337,3.08.285a7.349,7.349,0,0,1,3.27-.588,4.45,4.45,0,0,1,1.17.588c1.99,0.488,5.03-.519,7.36-0.437,0.39-.082.24,0.286,0.51,0.286a5.063,5.063,0,0,0,1.36-.437c1.99,0,3.55.688,5.5,0.739,2.73,0.052,5.69-1.327,8.02.286,1.17-1.077,2.69-.1,4.6-0.588a5.833,5.833,0,0,1,1.01.89c1.21-1.124,4.33-.791,5.5.151a3.836,3.836,0,0,0,1.17-.6c2.53,0.42,6.23-.553,8.92.454,0.47,0.034.5-.337,1.01-0.3a9.314,9.314,0,0,1,3.94,1.629c2.41-.708,8.02-1.832,9.89.134a3,3,0,0,0,1.21-.588c2.61,0.437,5.26-.017,7.52,1.038a5.745,5.745,0,0,1,3.23-.736c-0.04.269,0.2,0.317,0.16,0.585-0.04.406-.62,0.354-0.66,0.739a1.3,1.3,0,0,0,.86.588,5.964,5.964,0,0,0,2.88-1.76c3.16,0.134,6.31-.657,8.57.285a27.247,27.247,0,0,1,7.33.148c-0.08.842-.36,1.646,0.85,1.629,0.59-.385.35-0.553,0.35-1.326a21.22,21.22,0,0,1,5.81-.3,1.458,1.458,0,0,0,1.01.89,4.873,4.873,0,0,0,2.42-1.189c4.01,0.268,6.43-.168,10.05.151,0.2,0.148.35,0.3,0.55,0.451,2.8-1.259,6.35.237,9.19-.6a4.706,4.706,0,0,1,1.72.6c1.98-.083,4.01-0.654,5.29.285,3.36-.77,7.25.639,10.6,0.151,0.74,0.454,2.69,1.262,3.59.588a0.411,0.411,0,0,1,.35.436c1.17-.519,2.65-0.419,3.23.588,1.21,0.169,1.64-.488,2.92-0.588,0.08,0.42.08,0.42,0.67,0.588,1.24-.471,3.82-0.488,4.48.454,1.2-.337,3.11-0.2,3.74.436,1.94-.721,4.4.454,5.8,1.176,4.68-1.041,10.56,1.743,15.39,1.19,0.2,0.336-.12.319,0.35,0.57,1.44-.653,2.85.454,4.25,0.454,0.7,0,1.32-.485,2.07-0.454,0.62,0.051,1.32.639,2.02,0.739,0.94,0.134,1.79-.4,2.57.151,0.51-.017.23-0.687,0.86-0.587,0.78-.017.35,0.972,1.21,0.89,0.54,0.117.23-.488,0.5-0.588C1433.76,394.288,1435.32,395.917,1436.37,395.2Zm28.68,7.353a0.5,0.5,0,0,1,.35.3c1.05-.554,1.83.2,3.08,0.285-0.04-.822-1.14-1.021-1.52-1.911C1465.94,401.355,1465.2,401.674,1465.05,402.548Zm12.46,1.323c-0.04.454,0.59,0.3,0.86,0.437a4.4,4.4,0,0,1,.7-0.874C1478.37,403.4,1477.94,404.139,1477.51,403.871Zm-27.82,2.5a10.678,10.678,0,0,0,1.68-.152c-0.19-.79-1.17-0.117-1.68-0.739A0.938,0.938,0,0,0,1449.69,406.374Zm40.49,1.763c0.27-.354,1.17-0.151,1.21-0.722C1490.6,407.264,1489.87,407.865,1490.18,408.137Zm-23.22,2.952c0.62-.068,1.4.757,1.52-0.151C1467.77,411.124,1467.03,410.553,1466.96,411.089Zm11.1,1.327a1.1,1.1,0,0,0,.66-0.151c-0.23-1.681-1.83-.722-2.73-1.478,0.04,0.285-.19.337-0.15,0.588a3.374,3.374,0,0,1,1.36.3,0.405,0.405,0,0,1-.54.437c-0.74-.64-2.88-0.454-3.74.151,1.71,0.753,2.57.268,4.44,0.588-0.16-.471.58-0.2,0.5-0.588a0.3,0.3,0,1,1,0-.588C1478.26,411.98,1477.71,412.148,1478.06,412.416Zm9.04-.151c-0.31-.756.62-0.453,0.7-0.89a2.933,2.933,0,0,0-1.56-.588A0.86,0.86,0,0,0,1487.1,412.265Zm-6.51-.588c0.74-.168.67,0.3,1.21,0.286v-0.739C1481.06,411.306,1480.71,411.324,1480.59,411.677Zm-1.36,1.025a2.247,2.247,0,0,0,2.06.436v-0.722C1480.59,411.98,1479.46,411.777,1479.23,412.7Zm13.01,0.887a7.464,7.464,0,0,0-1.56-.585C1490.41,413.791,1492.05,413.675,1492.24,413.589Zm-2.22,0c0.04-.385-0.23-0.485-0.7-0.451C1489.28,413.54,1489.55,413.623,1490.02,413.589Zm-7.52,2.805c0.04,0.536-.7.367-0.55,1.024a3.746,3.746,0,0,0,1.21,0c-0.23-.739.55-0.622,0.51-1.176-0.86-.622-0.27-1.578-1.01-2.217-0.04.925-.98-0.367-1.21,0.588a0.851,0.851,0,0,1,.35,1.478c-0.31-.354-1.21-0.22-1.21-1.176a0.871,0.871,0,0,0,.7-1.041c-1.4-.3-2.96.993-4.09,0.3,0-.3.47-0.182,0.31-0.587-0.62-.468-0.97.219-1.36,0.436,0.15,0.622,1.52.186,1.21,1.176,0.66-.034.62,0.536,1.36,0.454a0.278,0.278,0,0,1,.35-0.152c0.55-.268-0.58-0.5,0-0.739A7,7,0,0,0,1482.5,416.394Zm1.17-.605c1.01,0.185,2.18.2,2.42,1.041,0.42,0.1.7-.656,1.01-0.151a1.927,1.927,0,0,0-.35,2.348c1.24-.753.74-2.517,0.35-3.826a2.45,2.45,0,0,1-2.07.151,1.359,1.359,0,0,0,.2-1.024C1483.98,413.994,1484.06,415.184,1483.67,415.789Zm7.36-.134v0.587a3.809,3.809,0,0,1,2.57,1.025c-0.62-.89,1.1-0.588,1.52-1.025-0.35-.051-0.04-0.656-0.5-0.587a2.629,2.629,0,0,1-2.92-.3C1491.66,415.62,1491.42,415.689,1491.03,415.655Zm-21.7.587c1.48,0.939,3.63.537,5.11,0.873,0.31-.336.97-0.354,0.86-1.024a4.367,4.367,0,0,0-3.24.3c-0.04-.186.04-0.437-0.16-0.454C1471.51,416.359,1469.96,416.091,1469.33,416.242Zm31.44,1.025a1.533,1.533,0,0,0,1.21-.588c-0.5-.017-1.01-0.791-1.56-0.285A1.168,1.168,0,0,1,1500.77,417.267Zm-8.88-.286c-0.19.437,0.39,0.251,0.66,0.286V416.83A1.013,1.013,0,0,0,1491.89,416.981Zm2.22,3.087c0.74-.082-0.62-0.553-0.15-1.327,0.23-.031.27-0.251,0.5-0.3,1.02,0.3,2.73-.017,3.08.887,2.57-.9,3.78,1.461,5.81.437-1.25-1.008-3.59-.317-4.64-1.609-1.48.67-4.32-.756-6.31-0.454C1492.24,419.113,1493.68,419.147,1494.11,420.068Zm-9.89-.436a1.1,1.1,0,0,0,.5.721c0.04-.518.63-0.6,0.67-1.175C1484.72,419.1,1484.68,419.549,1484.22,419.632Zm-2.27.873c0-.5.67-0.437,1.21-0.437,0.04-.385-0.04-0.636-0.5-0.588C1482.54,419.882,1480.94,420.02,1481.95,420.505Zm9.75,0a2.06,2.06,0,0,0,.35.739,3.084,3.084,0,0,0,.86-0.152C1493.06,420.422,1492.2,420.168,1491.7,420.505Zm11.65,0.587a4.191,4.191,0,0,0,1.01-.739h-0.86C1503.58,420.708,1503.19,420.673,1503.35,421.092Zm-43.06.437c0.55,0.822,1.95.069,2.73,0.3C1462.86,420.941,1460.6,420.622,1460.29,421.529Zm4.76,0.3a14.741,14.741,0,0,0,1.05,1.041c-0.51.351-1.25,0.5-1.72,0.873,0.71,0.031.94,0.45,1.72,0.433,1.55-.67,0-1.76.31-2.784A1.469,1.469,0,0,0,1465.05,421.832Zm6,0a3.857,3.857,0,0,1,1.01,1.041v-0.89c0.39-.168,1.09-0.035,1.21-0.454a2.211,2.211,0,0,1-1.87-.134C1471.44,421.68,1471.16,421.68,1471.05,421.832Zm2.88-.152v0.3c0.47-.017.35,0.233,0.7,0v-0.3C1474.28,421.447,1474.4,421.7,1473.93,421.68Zm1.37,1.193a1.675,1.675,0,0,0,1.9,0c-1.17.3-.74-0.756-1.56-0.739A8,8,0,0,1,1475.3,422.873Zm11.29,1.76a2.47,2.47,0,0,0,0-1.323h-0.7C1486.05,424.149,1486.01,424.365,1486.59,424.633Zm0.67-1.038c0.11,0.887.85,0.165,0.85-.285C1487.6,423.189,1487.8,423.712,1487.26,423.6Zm-77.23,3.1a1.3,1.3,0,0,1,.86.134c-0.04-.285.23-0.285,0.35-0.436a1.2,1.2,0,0,1-.86-0.152A2.612,2.612,0,0,1,1410.03,426.7Zm2.07,0a0.814,0.814,0,0,0,1.2,0C1412.92,426.6,1412.21,426.146,1412.1,426.7Zm1.71,0.134c0.9,0.553,1.44.268,2.53,0.151C1416.19,426.194,1414.12,426.228,1413.81,426.833Zm64.25,2.066a3.492,3.492,0,0,0,2.73.285,9.163,9.163,0,0,1,.15-1.309A25.7,25.7,0,0,0,1478.06,428.9Zm-6.51.285a2.074,2.074,0,0,0,.35,1.341,3.077,3.077,0,0,1,1.02.134c0-.571-0.55-0.7-0.7-1.176a9.247,9.247,0,0,1,1.05-1.02C1472.49,428.528,1472.33,429.116,1471.55,429.184Zm2.58,0.451c0.73-.152,1.48-0.286,1.51-1.021-0.46.117-.42-0.22-0.85-0.151C1474.82,429.081,1473.81,428.8,1474.13,429.635Zm-29.58.436a1.671,1.671,0,0,0,1.01.152A0.512,0.512,0,0,0,1444.55,430.071Zm37.76-29.723c0.11,1.375,1.91.8,2.92,0.57-0.2.42-.2,0.636,0.51,0.605a0.553,0.553,0,0,1-1.02.286c-0.08.1-.43,0.57,0,0.587-1.71-.22-4.01.117-5.65-0.739C1479.3,400.465,1480.63,399.859,1482.31,400.348Z" transform="translate(-1136.97 -384)"/>
</svg>
