<svg xmlns="http://www.w3.org/2000/svg" width="177.72" height="188.12" viewBox="0 0 177.72 188.12">
  <defs>
    <style>
      .cls-1 {
        fill: #fc4341;
      }

      .cls-1, .cls-2 {
        fill-rule: evenodd;
      }

      .cls-2 {
        fill: #252637;
      }
    </style>
  </defs>
  <path class="fill-primary" d="M1310.14,2822.02a44.745,44.745,0,0,0,5.7,3.68c0.88,0.45,2.36,1.24,3.28,1.74s2.04,1.08,2.49,1.28a6.049,6.049,0,0,1,1.5,1.08,5.54,5.54,0,0,0,1.54,1.07,33.3,33.3,0,0,1,5.39,3.58c0.87,0.64,2.32,1.7,3.25,2.37,1.74,1.27,6.55,5.06,9.89,7.81,4.4,3.62,7.96,6.42,10.55,8.26a7.776,7.776,0,0,0,1.56.87,9.8,9.8,0,0,1,2.03,1.36,10.877,10.877,0,0,0,2.79,1.59c2.07,0.69,4.62,1.66,5.79,2.18,0.54,0.25,1.84.74,2.85,1.07s2.34,0.77,2.95.97a22.266,22.266,0,0,1,2.8,1.25c1.67,0.88,2.34,1.39,7.36,5.51,2.96,2.43,4.58,3.46,6.53,4.16a15.391,15.391,0,0,1,2.08.89c0.58,0.35,1.38.54,4.57,1.06a14.511,14.511,0,0,0,2.97.02c0.96-.1,2.45-0.18,3.27-0.19a53.36,53.36,0,0,0,10.91-2.46,15.589,15.589,0,0,1,1.7-.7c1.06-.31,7.97-3.82,12.52-6.36,1.24-.69,3.67-1.97,5.44-2.87a85.57,85.57,0,0,0,7.72-4.35,17.491,17.491,0,0,0,3.98-3.37c2.86-2.95,4.23-4.19,4.84-4.38,1.01-.32,8.03-5.15,10.75-7.4a40.541,40.541,0,0,0,8.4-9.17,67.86,67.86,0,0,0,5.09-8.22,14.565,14.565,0,0,1,1.49-2.6c1.25-1.16,4.02-6.82,4.77-9.77a63.96,63.96,0,0,0,1.69-7.61,28.246,28.246,0,0,0-.49-7.9c-0.22-.71-0.56-1.81-0.76-2.47-0.87-2.86-6.89-7.85-9.83-8.16a8.38,8.38,0,0,1-2.48-.79,9.576,9.576,0,0,0-2.62-.82,27.141,27.141,0,0,1-3.56-.87c-1.23-.39-3.14-0.92-4.25-1.16a18.086,18.086,0,0,1-3.1-.99,10.978,10.978,0,0,0-2.79-.79,15.4,15.4,0,0,1-5.84-2.62c-3.93-3.14-3.87-3.07-4.37-5.19a14.43,14.43,0,0,1-.26-4.03,6.52,6.52,0,0,0,.01-2.22,6.066,6.066,0,0,1,.4-2.27c0.34-1.13.77-2.88,0.97-3.91,0.2-1.05.64-2.84,0.99-4.04s0.78-2.91.99-3.84,0.78-3.39,1.29-5.51a85.612,85.612,0,0,0,1.87-10.14,20.189,20.189,0,0,0,.17-2.79,13.791,13.791,0,0,1,.09-1.95,20.8,20.8,0,0,0,.06-2.67,30.166,30.166,0,0,1,.11-3.46,13.457,13.457,0,0,0-.04-2.9c-0.11-.83-0.24-2.02-0.3-2.65a24.434,24.434,0,0,0-1.39-6.25c-0.32-.79-0.84-2.28-1.12-3.27-0.5-1.74-.71-2.02-4.07-5.34a43.619,43.619,0,0,0-4.86-4.28c-3.33-1.98-10.85-3.41-17.04-3.23-1.64.05-3.53,0.1-4.25,0.12-0.7.02-1.97,0.05-2.78,0.07-0.83.02-2.79,0.17-4.4,0.34-3.17.33-4.63,0.46-8.75,0.75a89.433,89.433,0,0,0-9.63,1.01,56.591,56.591,0,0,0-8.44,1.98c-4.79,1.62-9.51,4.52-14.92,9.15a133.943,133.943,0,0,0-10.58,11.47c-0.45.62-1.33,1.7-1.96,2.42-3.29,3.79-12.94,16.81-15.5,20.93-0.36.57-1.24,1.9-1.99,2.98a29.848,29.848,0,0,0-1.7,2.67,4.4,4.4,0,0,1-.73,1.07,25.41,25.41,0,0,0-1.8,2.6c-2.51,3.98-2.7,4.27-3.59,5.46a6.145,6.145,0,0,0-.95,1.64,4.428,4.428,0,0,1-.76,1.31c-1.48,1.82-14.15,22.99-15.49,25.86-0.58,1.26-1.32,2.74-1.65,3.34a27.374,27.374,0,0,0-2.78,5.86,30.452,30.452,0,0,1-1.07,2.86,8.814,8.814,0,0,0-.55,2.24,31.352,31.352,0,0,1-.57,3.11,5.7,5.7,0,0,0-.17,2.32,3.93,3.93,0,0,1,.17,1.32,10.771,10.771,0,0,0,1.12,4.25,2.7,2.7,0,0,1,.47,1.08c0.16,0.9,3.46,4.81,5.03,5.95h0Z" transform="translate(-1303.28 -2697.88)"/>
  <path class="fill-dark" d="M1480.41,2827.62a11.62,11.62,0,0,0-3.85-4.63c-1.9-1.17-4.6-1.96-5.94-1.75-3.18.51-4.78,4.26-3.3,7.73a11.43,11.43,0,0,0,4.04,4.8c1.9,1.15,5.28,1.73,6.86,1.17,2.51-.88,3.53-4.27,2.19-7.32h0Zm-19.52,35.93a28.033,28.033,0,0,0-2.86-8.05c-2.09-2.88-5.03-4.39-7.75-3.99-2.9.43-5.14,3.43-5.26,7.06a16.553,16.553,0,0,0,3.01,9.01c3.19,4,8.46,5.22,11.01,2.57,0.67-.71,2.15-4.88,2-5.65-0.02-.08-0.09-0.52-0.15-0.95h0Zm-3.61-81.37a6.64,6.64,0,0,0-4.04-3.88c-4.56-1.54-6.36,3.51-2.69,7.51,1.19,1.29,3.82,2.2,5.03,1.73,2.17-.85,2.79-2.8,1.7-5.36h0Zm-12.12,31.11c-1.01-3.27-4.39-6.66-7.37-7.37-5.85-1.39-9.28,2.85-6.86,8.5a10.565,10.565,0,0,0,6.44,6.08c3.29,1.11,6.06.3,7.47-2.17a6.838,6.838,0,0,0,.32-5.04h0Zm-2.63,22.09a11.775,11.775,0,0,0-7.29-6.56,5.3,5.3,0,0,0-5.29.77c-0.83.73-.97,1.12-1.11,3.09a10.606,10.606,0,0,0,7.19,10.89c5.31,1.8,8.82-2.61,6.5-8.19h0Zm-14.91,43.09a8.61,8.61,0,0,0-5.56-5.78c-2.79-.94-5.55-0.09-6.04,1.87-0.1.4-.34,1.28-0.53,1.91-0.7,2.33.65,5.83,3.02,7.85,3.08,2.62,6.21,2.13,8.29-1.3a4.975,4.975,0,0,0,.82-4.55h0Zm-12.4-82.29a16.259,16.259,0,0,0-4.85-6.5,11.952,11.952,0,0,0-7.76-2.49c-3.69.46-5.78,2.91-5.85,6.85a11.474,11.474,0,0,0,2.83,7.82,13.072,13.072,0,0,0,6.35,4.85c4.05,1.44,7.22.65,9.08-2.27a5.587,5.587,0,0,0,1.01-3.83,9.31,9.31,0,0,0-.81-4.43h0Zm-8.9,33.48c-1.91-4.42-6.9-7.63-11.23-7.22a8.832,8.832,0,0,0-5.35,3.45c-1.37,2.27-.84,6.31,1.26,9.54,2.18,3.36,6.7,5.75,9.84,5.21,1.71-.29,2.29-0.65,4.07-2.52,1.68-1.76,2.09-2.69,2.11-4.87a7.718,7.718,0,0,0-.7-3.59h0Z" transform="translate(-1303.28 -2697.88)"/>
</svg>
