<?xml version="1.0" encoding="utf-8"?>
<!-- Generator: Adobe Illustrator 23.0.0, SVG Export Plug-In . SVG Version: 6.00 Build 0)  -->
<svg version="1.1" id="Layer_1" xmlns="http://www.w3.org/2000/svg" xmlns:xlink="http://www.w3.org/1999/xlink" width="110px" height="110px" x="0px" y="0px"
	 viewBox="0 0 110 110" style="enable-background:new 0 0 110 110;" xml:space="preserve">
	<g>
		<linearGradient id="Gradient" gradientUnits="userSpaceOnUse" x1="66.9565" y1="40.6522" x2="81.3043" y2="40.6522">
			<stop  offset="0" class="fill-gradient-1"/>
			<stop  offset="1" class="fill-gradient-1"/>
		</linearGradient>
		<path class="fill-gradient" d="M74.1,33.5c-4,0-7.2,3.2-7.2,7.2s3.2,7.2,7.2,7.2s7.2-3.2,7.2-7.2S78.1,33.5,74.1,33.5z M74.1,43
			c-1.3,0-2.4-1.1-2.4-2.4c0-1.3,1.1-2.4,2.4-2.4c1.3,0,2.4,1.1,2.4,2.4C76.5,42,75.5,43,74.1,43z"/>
		<path class="fill-gradient" d="M35.9,47.8c4,0,7.2-3.2,7.2-7.2s-3.2-7.2-7.2-7.2s-7.2,3.2-7.2,7.2S31.9,47.8,35.9,47.8z M35.9,38.3
			c1.3,0,2.4,1.1,2.4,2.4c0,1.3-1.1,2.4-2.4,2.4c-1.3,0-2.4-1.1-2.4-2.4C33.5,39.3,34.5,38.3,35.9,38.3z"/>
		<path class="fill-gradient" d="M55,0C24.7,0,0,24.7,0,55s24.7,55,55,55s55-24.7,55-55S85.3,0,55,0z M55,105.2C27.3,105.2,4.8,82.7,4.8,55
			S27.3,4.8,55,4.8s50.2,22.5,50.2,50.2S82.7,105.2,55,105.2z"/>
		<path class="fill-gradient" d="M78.9,62.2H31.1c-1.3,0-2.4,1.1-2.4,2.4c0,14.5,11.8,26.3,26.3,26.3s26.3-11.8,26.3-26.3
			C81.3,63.2,80.2,62.2,78.9,62.2z M55,86.1c-11.1,0-20.2-8.4-21.4-19.1h42.8C75.2,77.7,66.1,86.1,55,86.1z"/>
	</g>
</svg>
